solid 
   facet normal 0.000000e+000 0.000000e+000 1.000000e+000
      outer loop
         vertex 0.000000e+000 0.000000e+000 1.000000e+000
         vertex 1.400000e+001 0.000000e+000 1.000000e+000
         vertex 1.275000e+001 1.250000e+000 1.000000e+000
      endloop
   endfacet
   facet normal -0.000000e+000 0.000000e+000 1.000000e+000
      outer loop
         vertex 1.400000e+001 1.400000e+001 1.000000e+000
         vertex 0.000000e+000 1.400000e+001 1.000000e+000
         vertex 1.250000e+000 1.275000e+001 1.000000e+000
      endloop
   endfacet
   facet normal 0.000000e+000 -0.000000e+000 1.000000e+000
      outer loop
         vertex 1.250000e+000 1.275000e+001 1.000000e+000
         vertex 1.275000e+001 1.275000e+001 1.000000e+000
         vertex 1.400000e+001 1.400000e+001 1.000000e+000
      endloop
   endfacet
   facet normal -0.000000e+000 0.000000e+000 1.000000e+000
      outer loop
         vertex 1.275000e+001 1.250000e+000 1.000000e+000
         vertex 1.250000e+000 1.250000e+000 1.000000e+000
         vertex 0.000000e+000 0.000000e+000 1.000000e+000
      endloop
   endfacet
   facet normal 0.000000e+000 -0.000000e+000 1.000000e+000
      outer loop
         vertex 1.275000e+001 1.250000e+000 1.000000e+000
         vertex 1.400000e+001 0.000000e+000 1.000000e+000
         vertex 1.400000e+001 1.400000e+001 1.000000e+000
      endloop
   endfacet
   facet normal 0.000000e+000 0.000000e+000 1.000000e+000
      outer loop
         vertex 0.000000e+000 0.000000e+000 1.000000e+000
         vertex 1.250000e+000 1.250000e+000 1.000000e+000
         vertex 0.000000e+000 1.400000e+001 1.000000e+000
      endloop
   endfacet
   facet normal 0.000000e+000 0.000000e+000 1.000000e+000
      outer loop
         vertex 1.275000e+001 1.275000e+001 1.000000e+000
         vertex 1.275000e+001 1.250000e+000 1.000000e+000
         vertex 1.400000e+001 1.400000e+001 1.000000e+000
      endloop
   endfacet
   facet normal 0.000000e+000 0.000000e+000 1.000000e+000
      outer loop
         vertex 1.250000e+000 1.275000e+001 1.000000e+000
         vertex 0.000000e+000 1.400000e+001 1.000000e+000
         vertex 1.250000e+000 1.250000e+000 1.000000e+000
      endloop
   endfacet
   facet normal 0.000000e+000 -1.000000e+000 0.000000e+000
      outer loop
         vertex 1.250000e+000 1.250000e+000 3.000000e+000
         vertex 1.250000e+000 1.250000e+000 1.000000e+000
         vertex 1.275000e+001 1.250000e+000 1.000000e+000
      endloop
   endfacet
   facet normal 0.000000e+000 -1.000000e+000 0.000000e+000
      outer loop
         vertex 1.275000e+001 1.250000e+000 3.000000e+000
         vertex 1.250000e+000 1.250000e+000 3.000000e+000
         vertex 1.275000e+001 1.250000e+000 1.000000e+000
      endloop
   endfacet
   facet normal -1.000000e+000 0.000000e+000 0.000000e+000
      outer loop
         vertex 1.250000e+000 1.275000e+001 3.000000e+000
         vertex 1.250000e+000 1.275000e+001 1.000000e+000
         vertex 1.250000e+000 1.250000e+000 1.000000e+000
      endloop
   endfacet
   facet normal -1.000000e+000 -0.000000e+000 0.000000e+000
      outer loop
         vertex 1.250000e+000 1.250000e+000 3.000000e+000
         vertex 1.250000e+000 1.275000e+001 3.000000e+000
         vertex 1.250000e+000 1.250000e+000 1.000000e+000
      endloop
   endfacet
   facet normal 0.000000e+000 1.000000e+000 -0.000000e+000
      outer loop
         vertex 1.275000e+001 1.275000e+001 3.000000e+000
         vertex 1.275000e+001 1.275000e+001 1.000000e+000
         vertex 1.250000e+000 1.275000e+001 1.000000e+000
      endloop
   endfacet
   facet normal 0.000000e+000 1.000000e+000 0.000000e+000
      outer loop
         vertex 1.250000e+000 1.275000e+001 3.000000e+000
         vertex 1.275000e+001 1.275000e+001 3.000000e+000
         vertex 1.250000e+000 1.275000e+001 1.000000e+000
      endloop
   endfacet
   facet normal 1.000000e+000 0.000000e+000 0.000000e+000
      outer loop
         vertex 1.275000e+001 1.250000e+000 3.000000e+000
         vertex 1.275000e+001 1.250000e+000 1.000000e+000
         vertex 1.275000e+001 1.275000e+001 1.000000e+000
      endloop
   endfacet
   facet normal 1.000000e+000 -0.000000e+000 0.000000e+000
      outer loop
         vertex 1.275000e+001 1.275000e+001 3.000000e+000
         vertex 1.275000e+001 1.250000e+000 3.000000e+000
         vertex 1.275000e+001 1.275000e+001 1.000000e+000
      endloop
   endfacet
   facet normal 1.000000e+000 0.000000e+000 0.000000e+000
      outer loop
         vertex 1.400000e+001 0.000000e+000 1.000000e+000
         vertex 1.400000e+001 0.000000e+000 0.000000e+000
         vertex 1.400000e+001 1.400000e+001 0.000000e+000
      endloop
   endfacet
   facet normal 1.000000e+000 -0.000000e+000 0.000000e+000
      outer loop
         vertex 1.400000e+001 1.400000e+001 1.000000e+000
         vertex 1.400000e+001 0.000000e+000 1.000000e+000
         vertex 1.400000e+001 1.400000e+001 0.000000e+000
      endloop
   endfacet
   facet normal 0.000000e+000 1.000000e+000 -0.000000e+000
      outer loop
         vertex 1.400000e+001 1.400000e+001 1.000000e+000
         vertex 1.400000e+001 1.400000e+001 0.000000e+000
         vertex 0.000000e+000 1.400000e+001 0.000000e+000
      endloop
   endfacet
   facet normal 0.000000e+000 1.000000e+000 0.000000e+000
      outer loop
         vertex 0.000000e+000 1.400000e+001 1.000000e+000
         vertex 1.400000e+001 1.400000e+001 1.000000e+000
         vertex 0.000000e+000 1.400000e+001 0.000000e+000
      endloop
   endfacet
   facet normal -1.000000e+000 0.000000e+000 0.000000e+000
      outer loop
         vertex 0.000000e+000 1.400000e+001 1.000000e+000
         vertex 0.000000e+000 1.400000e+001 0.000000e+000
         vertex 0.000000e+000 0.000000e+000 0.000000e+000
      endloop
   endfacet
   facet normal -1.000000e+000 -0.000000e+000 0.000000e+000
      outer loop
         vertex 0.000000e+000 0.000000e+000 1.000000e+000
         vertex 0.000000e+000 1.400000e+001 1.000000e+000
         vertex 0.000000e+000 0.000000e+000 0.000000e+000
      endloop
   endfacet
   facet normal 0.000000e+000 -1.000000e+000 0.000000e+000
      outer loop
         vertex 0.000000e+000 0.000000e+000 1.000000e+000
         vertex 0.000000e+000 0.000000e+000 0.000000e+000
         vertex 1.400000e+001 0.000000e+000 0.000000e+000
      endloop
   endfacet
   facet normal 0.000000e+000 -1.000000e+000 0.000000e+000
      outer loop
         vertex 1.400000e+001 0.000000e+000 1.000000e+000
         vertex 0.000000e+000 0.000000e+000 1.000000e+000
         vertex 1.400000e+001 0.000000e+000 0.000000e+000
      endloop
   endfacet
   facet normal 0.000000e+000 -0.000000e+000 1.000000e+000
      outer loop
         vertex 1.250000e+000 1.250000e+000 3.000000e+000
         vertex 1.275000e+001 1.250000e+000 3.000000e+000
         vertex 1.275000e+001 1.275000e+001 3.000000e+000
      endloop
   endfacet
   facet normal 0.000000e+000 0.000000e+000 1.000000e+000
      outer loop
         vertex 1.250000e+000 1.275000e+001 3.000000e+000
         vertex 1.250000e+000 1.250000e+000 3.000000e+000
         vertex 1.275000e+001 1.275000e+001 3.000000e+000
      endloop
   endfacet
   facet normal -0.000000e+000 -0.000000e+000 -1.000000e+000
      outer loop
         vertex 0.000000e+000 1.400000e+001 0.000000e+000
         vertex 1.400000e+001 1.400000e+001 0.000000e+000
         vertex 1.400000e+001 0.000000e+000 0.000000e+000
      endloop
   endfacet
   facet normal 0.000000e+000 0.000000e+000 -1.000000e+000
      outer loop
         vertex 0.000000e+000 1.400000e+001 0.000000e+000
         vertex 1.400000e+001 0.000000e+000 0.000000e+000
         vertex 0.000000e+000 0.000000e+000 0.000000e+000
      endloop
   endfacet
endsolid
