solid 
   facet normal -1.000000e+000 0.000000e+000 0.000000e+000
      outer loop
         vertex 6.750000e+001 3.300000e+001 2.500000e+000
         vertex 6.750000e+001 3.300000e+001 1.000000e+000
         vertex 6.750000e+001 0.000000e+000 1.000000e+000
      endloop
   endfacet
   facet normal -1.000000e+000 0.000000e+000 0.000000e+000
      outer loop
         vertex 6.750000e+001 5.050000e+001 1.000000e+000
         vertex 6.750000e+001 5.050000e+001 0.000000e+000
         vertex 6.750000e+001 3.300000e+001 1.000000e+000
      endloop
   endfacet
   facet normal -1.000000e+000 0.000000e+000 0.000000e+000
      outer loop
         vertex 6.750000e+001 0.000000e+000 1.000000e+000
         vertex 6.750000e+001 0.000000e+000 2.500000e+000
         vertex 6.750000e+001 3.300000e+001 2.500000e+000
      endloop
   endfacet
   facet normal -1.000000e+000 0.000000e+000 0.000000e+000
      outer loop
         vertex 6.750000e+001 3.300000e+001 1.000000e+000
         vertex 6.750000e+001 5.050000e+001 0.000000e+000
         vertex 6.750000e+001 0.000000e+000 0.000000e+000
      endloop
   endfacet
   facet normal -1.000000e+000 0.000000e+000 0.000000e+000
      outer loop
         vertex 6.750000e+001 0.000000e+000 0.000000e+000
         vertex 6.750000e+001 0.000000e+000 1.000000e+000
         vertex 6.750000e+001 3.300000e+001 1.000000e+000
      endloop
   endfacet
   facet normal 1.000000e+000 0.000000e+000 0.000000e+000
      outer loop
         vertex 3.000000e+000 5.050000e+001 0.000000e+000
         vertex 3.000000e+000 5.050000e+001 1.000000e+000
         vertex 3.000000e+000 3.300000e+001 1.000000e+000
      endloop
   endfacet
   facet normal 1.000000e+000 -0.000000e+000 0.000000e+000
      outer loop
         vertex 3.000000e+000 3.300000e+001 2.500000e+000
         vertex 3.000000e+000 0.000000e+000 2.500000e+000
         vertex 3.000000e+000 3.300000e+001 1.000000e+000
      endloop
   endfacet
   facet normal 1.000000e+000 0.000000e+000 0.000000e+000
      outer loop
         vertex 3.000000e+000 0.000000e+000 0.000000e+000
         vertex 3.000000e+000 5.050000e+001 0.000000e+000
         vertex 3.000000e+000 3.300000e+001 1.000000e+000
      endloop
   endfacet
   facet normal 1.000000e+000 0.000000e+000 0.000000e+000
      outer loop
         vertex 3.000000e+000 0.000000e+000 0.000000e+000
         vertex 3.000000e+000 3.300000e+001 1.000000e+000
         vertex 3.000000e+000 5.857878e-033 1.000000e+000
      endloop
   endfacet
   facet normal 1.000000e+000 0.000000e+000 -0.000000e+000
      outer loop
         vertex 3.000000e+000 0.000000e+000 2.500000e+000
         vertex 3.000000e+000 5.857878e-033 1.000000e+000
         vertex 3.000000e+000 3.300000e+001 1.000000e+000
      endloop
   endfacet
   facet normal 0.000000e+000 1.000000e+000 0.000000e+000
      outer loop
         vertex 5.235000e+001 1.795000e+001 4.000000e+000
         vertex 6.435000e+001 1.795000e+001 4.000000e+000
         vertex 6.435000e+001 1.795000e+001 2.500000e+000
      endloop
   endfacet
   facet normal 0.000000e+000 1.000000e+000 0.000000e+000
      outer loop
         vertex 5.235000e+001 1.795000e+001 4.000000e+000
         vertex 6.435000e+001 1.795000e+001 2.500000e+000
         vertex 5.235000e+001 1.795000e+001 2.500000e+000
      endloop
   endfacet
   facet normal 1.000000e+000 0.000000e+000 0.000000e+000
      outer loop
         vertex 5.235000e+001 2.995000e+001 2.500000e+000
         vertex 5.235000e+001 1.795000e+001 4.000000e+000
         vertex 5.235000e+001 1.795000e+001 2.500000e+000
      endloop
   endfacet
   facet normal 1.000000e+000 0.000000e+000 -0.000000e+000
      outer loop
         vertex 5.235000e+001 1.795000e+001 4.000000e+000
         vertex 5.235000e+001 2.995000e+001 2.500000e+000
         vertex 5.235000e+001 2.995000e+001 4.000000e+000
      endloop
   endfacet
   facet normal 0.000000e+000 -1.000000e+000 0.000000e+000
      outer loop
         vertex 6.435000e+001 2.995000e+001 4.000000e+000
         vertex 5.235000e+001 2.995000e+001 4.000000e+000
         vertex 5.235000e+001 2.995000e+001 2.500000e+000
      endloop
   endfacet
   facet normal 0.000000e+000 -1.000000e+000 0.000000e+000
      outer loop
         vertex 6.435000e+001 2.995000e+001 4.000000e+000
         vertex 5.235000e+001 2.995000e+001 2.500000e+000
         vertex 6.435000e+001 2.995000e+001 2.500000e+000
      endloop
   endfacet
   facet normal -1.000000e+000 0.000000e+000 -0.000000e+000
      outer loop
         vertex 6.435000e+001 1.795000e+001 2.500000e+000
         vertex 6.435000e+001 2.995000e+001 4.000000e+000
         vertex 6.435000e+001 2.995000e+001 2.500000e+000
      endloop
   endfacet
   facet normal -1.000000e+000 0.000000e+000 0.000000e+000
      outer loop
         vertex 6.435000e+001 2.995000e+001 4.000000e+000
         vertex 6.435000e+001 1.795000e+001 2.500000e+000
         vertex 6.435000e+001 1.795000e+001 4.000000e+000
      endloop
   endfacet
   facet normal 0.000000e+000 1.000000e+000 0.000000e+000
      outer loop
         vertex 3.715000e+001 1.795000e+001 2.500000e+000
         vertex 4.915000e+001 1.795000e+001 4.000000e+000
         vertex 4.915000e+001 1.795000e+001 2.500000e+000
      endloop
   endfacet
   facet normal 0.000000e+000 1.000000e+000 0.000000e+000
      outer loop
         vertex 4.915000e+001 1.795000e+001 4.000000e+000
         vertex 3.715000e+001 1.795000e+001 2.500000e+000
         vertex 3.715000e+001 1.795000e+001 4.000000e+000
      endloop
   endfacet
   facet normal 1.000000e+000 0.000000e+000 0.000000e+000
      outer loop
         vertex 3.715000e+001 2.995000e+001 2.500000e+000
         vertex 3.715000e+001 1.795000e+001 4.000000e+000
         vertex 3.715000e+001 1.795000e+001 2.500000e+000
      endloop
   endfacet
   facet normal 1.000000e+000 0.000000e+000 -0.000000e+000
      outer loop
         vertex 3.715000e+001 1.795000e+001 4.000000e+000
         vertex 3.715000e+001 2.995000e+001 2.500000e+000
         vertex 3.715000e+001 2.995000e+001 4.000000e+000
      endloop
   endfacet
   facet normal 0.000000e+000 -1.000000e+000 0.000000e+000
      outer loop
         vertex 4.915000e+001 2.995000e+001 2.500000e+000
         vertex 3.715000e+001 2.995000e+001 4.000000e+000
         vertex 3.715000e+001 2.995000e+001 2.500000e+000
      endloop
   endfacet
   facet normal 0.000000e+000 -1.000000e+000 0.000000e+000
      outer loop
         vertex 3.715000e+001 2.995000e+001 4.000000e+000
         vertex 4.915000e+001 2.995000e+001 2.500000e+000
         vertex 4.915000e+001 2.995000e+001 4.000000e+000
      endloop
   endfacet
   facet normal -1.000000e+000 0.000000e+000 -0.000000e+000
      outer loop
         vertex 4.915000e+001 1.795000e+001 2.500000e+000
         vertex 4.915000e+001 2.995000e+001 4.000000e+000
         vertex 4.915000e+001 2.995000e+001 2.500000e+000
      endloop
   endfacet
   facet normal -1.000000e+000 0.000000e+000 0.000000e+000
      outer loop
         vertex 4.915000e+001 2.995000e+001 4.000000e+000
         vertex 4.915000e+001 1.795000e+001 2.500000e+000
         vertex 4.915000e+001 1.795000e+001 4.000000e+000
      endloop
   endfacet
   facet normal 0.000000e+000 1.000000e+000 0.000000e+000
      outer loop
         vertex 2.195000e+001 1.795000e+001 4.000000e+000
         vertex 3.395000e+001 1.795000e+001 4.000000e+000
         vertex 3.395000e+001 1.795000e+001 2.500000e+000
      endloop
   endfacet
   facet normal 0.000000e+000 1.000000e+000 0.000000e+000
      outer loop
         vertex 2.195000e+001 1.795000e+001 4.000000e+000
         vertex 3.395000e+001 1.795000e+001 2.500000e+000
         vertex 2.195000e+001 1.795000e+001 2.500000e+000
      endloop
   endfacet
   facet normal 1.000000e+000 0.000000e+000 0.000000e+000
      outer loop
         vertex 2.195000e+001 2.995000e+001 2.500000e+000
         vertex 2.195000e+001 1.795000e+001 4.000000e+000
         vertex 2.195000e+001 1.795000e+001 2.500000e+000
      endloop
   endfacet
   facet normal 1.000000e+000 0.000000e+000 -0.000000e+000
      outer loop
         vertex 2.195000e+001 1.795000e+001 4.000000e+000
         vertex 2.195000e+001 2.995000e+001 2.500000e+000
         vertex 2.195000e+001 2.995000e+001 4.000000e+000
      endloop
   endfacet
   facet normal 0.000000e+000 -1.000000e+000 0.000000e+000
      outer loop
         vertex 3.395000e+001 2.995000e+001 2.500000e+000
         vertex 2.195000e+001 2.995000e+001 4.000000e+000
         vertex 2.195000e+001 2.995000e+001 2.500000e+000
      endloop
   endfacet
   facet normal 0.000000e+000 -1.000000e+000 0.000000e+000
      outer loop
         vertex 2.195000e+001 2.995000e+001 4.000000e+000
         vertex 3.395000e+001 2.995000e+001 2.500000e+000
         vertex 3.395000e+001 2.995000e+001 4.000000e+000
      endloop
   endfacet
   facet normal -1.000000e+000 0.000000e+000 -0.000000e+000
      outer loop
         vertex 3.395000e+001 1.795000e+001 2.500000e+000
         vertex 3.395000e+001 2.995000e+001 4.000000e+000
         vertex 3.395000e+001 2.995000e+001 2.500000e+000
      endloop
   endfacet
   facet normal -1.000000e+000 0.000000e+000 0.000000e+000
      outer loop
         vertex 3.395000e+001 2.995000e+001 4.000000e+000
         vertex 3.395000e+001 1.795000e+001 2.500000e+000
         vertex 3.395000e+001 1.795000e+001 4.000000e+000
      endloop
   endfacet
   facet normal 0.000000e+000 1.000000e+000 0.000000e+000
      outer loop
         vertex 6.750000e+000 1.795000e+001 2.500000e+000
         vertex 1.875000e+001 1.795000e+001 4.000000e+000
         vertex 1.875000e+001 1.795000e+001 2.500000e+000
      endloop
   endfacet
   facet normal 0.000000e+000 1.000000e+000 0.000000e+000
      outer loop
         vertex 1.875000e+001 1.795000e+001 4.000000e+000
         vertex 6.750000e+000 1.795000e+001 2.500000e+000
         vertex 6.750000e+000 1.795000e+001 4.000000e+000
      endloop
   endfacet
   facet normal 1.000000e+000 0.000000e+000 0.000000e+000
      outer loop
         vertex 6.750000e+000 2.995000e+001 2.500000e+000
         vertex 6.750000e+000 1.795000e+001 4.000000e+000
         vertex 6.750000e+000 1.795000e+001 2.500000e+000
      endloop
   endfacet
   facet normal 1.000000e+000 0.000000e+000 -0.000000e+000
      outer loop
         vertex 6.750000e+000 1.795000e+001 4.000000e+000
         vertex 6.750000e+000 2.995000e+001 2.500000e+000
         vertex 6.750000e+000 2.995000e+001 4.000000e+000
      endloop
   endfacet
   facet normal 0.000000e+000 -1.000000e+000 0.000000e+000
      outer loop
         vertex 1.875000e+001 2.995000e+001 2.500000e+000
         vertex 6.750000e+000 2.995000e+001 4.000000e+000
         vertex 6.750000e+000 2.995000e+001 2.500000e+000
      endloop
   endfacet
   facet normal 0.000000e+000 -1.000000e+000 0.000000e+000
      outer loop
         vertex 6.750000e+000 2.995000e+001 4.000000e+000
         vertex 1.875000e+001 2.995000e+001 2.500000e+000
         vertex 1.875000e+001 2.995000e+001 4.000000e+000
      endloop
   endfacet
   facet normal -1.000000e+000 0.000000e+000 -0.000000e+000
      outer loop
         vertex 1.875000e+001 1.795000e+001 2.500000e+000
         vertex 1.875000e+001 2.995000e+001 4.000000e+000
         vertex 1.875000e+001 2.995000e+001 2.500000e+000
      endloop
   endfacet
   facet normal -1.000000e+000 0.000000e+000 0.000000e+000
      outer loop
         vertex 1.875000e+001 2.995000e+001 4.000000e+000
         vertex 1.875000e+001 1.795000e+001 2.500000e+000
         vertex 1.875000e+001 1.795000e+001 4.000000e+000
      endloop
   endfacet
   facet normal 0.000000e+000 1.000000e+000 0.000000e+000
      outer loop
         vertex 5.235000e+001 2.750000e+000 4.000000e+000
         vertex 6.435000e+001 2.750000e+000 4.000000e+000
         vertex 6.435000e+001 2.750000e+000 2.500000e+000
      endloop
   endfacet
   facet normal 0.000000e+000 1.000000e+000 0.000000e+000
      outer loop
         vertex 5.235000e+001 2.750000e+000 4.000000e+000
         vertex 6.435000e+001 2.750000e+000 2.500000e+000
         vertex 5.235000e+001 2.750000e+000 2.500000e+000
      endloop
   endfacet
   facet normal 1.000000e+000 0.000000e+000 0.000000e+000
      outer loop
         vertex 5.235000e+001 1.475000e+001 2.500000e+000
         vertex 5.235000e+001 2.750000e+000 4.000000e+000
         vertex 5.235000e+001 2.750000e+000 2.500000e+000
      endloop
   endfacet
   facet normal 1.000000e+000 0.000000e+000 -0.000000e+000
      outer loop
         vertex 5.235000e+001 2.750000e+000 4.000000e+000
         vertex 5.235000e+001 1.475000e+001 2.500000e+000
         vertex 5.235000e+001 1.475000e+001 4.000000e+000
      endloop
   endfacet
   facet normal 0.000000e+000 -1.000000e+000 0.000000e+000
      outer loop
         vertex 6.435000e+001 1.475000e+001 4.000000e+000
         vertex 5.235000e+001 1.475000e+001 4.000000e+000
         vertex 5.235000e+001 1.475000e+001 2.500000e+000
      endloop
   endfacet
   facet normal 0.000000e+000 -1.000000e+000 0.000000e+000
      outer loop
         vertex 6.435000e+001 1.475000e+001 4.000000e+000
         vertex 5.235000e+001 1.475000e+001 2.500000e+000
         vertex 6.435000e+001 1.475000e+001 2.500000e+000
      endloop
   endfacet
   facet normal -1.000000e+000 0.000000e+000 -0.000000e+000
      outer loop
         vertex 6.435000e+001 2.750000e+000 2.500000e+000
         vertex 6.435000e+001 1.475000e+001 4.000000e+000
         vertex 6.435000e+001 1.475000e+001 2.500000e+000
      endloop
   endfacet
   facet normal -1.000000e+000 0.000000e+000 0.000000e+000
      outer loop
         vertex 6.435000e+001 1.475000e+001 4.000000e+000
         vertex 6.435000e+001 2.750000e+000 2.500000e+000
         vertex 6.435000e+001 2.750000e+000 4.000000e+000
      endloop
   endfacet
   facet normal 0.000000e+000 1.000000e+000 0.000000e+000
      outer loop
         vertex 3.715000e+001 2.750000e+000 2.500000e+000
         vertex 4.915000e+001 2.750000e+000 4.000000e+000
         vertex 4.915000e+001 2.750000e+000 2.500000e+000
      endloop
   endfacet
   facet normal 0.000000e+000 1.000000e+000 0.000000e+000
      outer loop
         vertex 4.915000e+001 2.750000e+000 4.000000e+000
         vertex 3.715000e+001 2.750000e+000 2.500000e+000
         vertex 3.715000e+001 2.750000e+000 4.000000e+000
      endloop
   endfacet
   facet normal 1.000000e+000 0.000000e+000 0.000000e+000
      outer loop
         vertex 3.715000e+001 1.475000e+001 2.500000e+000
         vertex 3.715000e+001 2.750000e+000 4.000000e+000
         vertex 3.715000e+001 2.750000e+000 2.500000e+000
      endloop
   endfacet
   facet normal 1.000000e+000 0.000000e+000 -0.000000e+000
      outer loop
         vertex 3.715000e+001 2.750000e+000 4.000000e+000
         vertex 3.715000e+001 1.475000e+001 2.500000e+000
         vertex 3.715000e+001 1.475000e+001 4.000000e+000
      endloop
   endfacet
   facet normal 0.000000e+000 -1.000000e+000 0.000000e+000
      outer loop
         vertex 4.915000e+001 1.475000e+001 2.500000e+000
         vertex 3.715000e+001 1.475000e+001 4.000000e+000
         vertex 3.715000e+001 1.475000e+001 2.500000e+000
      endloop
   endfacet
   facet normal 0.000000e+000 -1.000000e+000 0.000000e+000
      outer loop
         vertex 3.715000e+001 1.475000e+001 4.000000e+000
         vertex 4.915000e+001 1.475000e+001 2.500000e+000
         vertex 4.915000e+001 1.475000e+001 4.000000e+000
      endloop
   endfacet
   facet normal -1.000000e+000 0.000000e+000 -0.000000e+000
      outer loop
         vertex 4.915000e+001 2.750000e+000 2.500000e+000
         vertex 4.915000e+001 1.475000e+001 4.000000e+000
         vertex 4.915000e+001 1.475000e+001 2.500000e+000
      endloop
   endfacet
   facet normal -1.000000e+000 0.000000e+000 0.000000e+000
      outer loop
         vertex 4.915000e+001 1.475000e+001 4.000000e+000
         vertex 4.915000e+001 2.750000e+000 2.500000e+000
         vertex 4.915000e+001 2.750000e+000 4.000000e+000
      endloop
   endfacet
   facet normal 0.000000e+000 1.000000e+000 0.000000e+000
      outer loop
         vertex 2.195000e+001 2.750000e+000 4.000000e+000
         vertex 3.395000e+001 2.750000e+000 4.000000e+000
         vertex 3.395000e+001 2.750000e+000 2.500000e+000
      endloop
   endfacet
   facet normal 0.000000e+000 1.000000e+000 0.000000e+000
      outer loop
         vertex 2.195000e+001 2.750000e+000 4.000000e+000
         vertex 3.395000e+001 2.750000e+000 2.500000e+000
         vertex 2.195000e+001 2.750000e+000 2.500000e+000
      endloop
   endfacet
   facet normal 1.000000e+000 0.000000e+000 0.000000e+000
      outer loop
         vertex 2.195000e+001 1.475000e+001 2.500000e+000
         vertex 2.195000e+001 2.750000e+000 4.000000e+000
         vertex 2.195000e+001 2.750000e+000 2.500000e+000
      endloop
   endfacet
   facet normal 1.000000e+000 0.000000e+000 -0.000000e+000
      outer loop
         vertex 2.195000e+001 2.750000e+000 4.000000e+000
         vertex 2.195000e+001 1.475000e+001 2.500000e+000
         vertex 2.195000e+001 1.475000e+001 4.000000e+000
      endloop
   endfacet
   facet normal 0.000000e+000 -1.000000e+000 0.000000e+000
      outer loop
         vertex 3.395000e+001 1.475000e+001 4.000000e+000
         vertex 2.195000e+001 1.475000e+001 4.000000e+000
         vertex 2.195000e+001 1.475000e+001 2.500000e+000
      endloop
   endfacet
   facet normal 0.000000e+000 -1.000000e+000 0.000000e+000
      outer loop
         vertex 3.395000e+001 1.475000e+001 4.000000e+000
         vertex 2.195000e+001 1.475000e+001 2.500000e+000
         vertex 3.395000e+001 1.475000e+001 2.500000e+000
      endloop
   endfacet
   facet normal -1.000000e+000 0.000000e+000 -0.000000e+000
      outer loop
         vertex 3.395000e+001 2.750000e+000 2.500000e+000
         vertex 3.395000e+001 1.475000e+001 4.000000e+000
         vertex 3.395000e+001 1.475000e+001 2.500000e+000
      endloop
   endfacet
   facet normal -1.000000e+000 0.000000e+000 0.000000e+000
      outer loop
         vertex 3.395000e+001 1.475000e+001 4.000000e+000
         vertex 3.395000e+001 2.750000e+000 2.500000e+000
         vertex 3.395000e+001 2.750000e+000 4.000000e+000
      endloop
   endfacet
   facet normal 0.000000e+000 1.000000e+000 0.000000e+000
      outer loop
         vertex 6.750000e+000 2.750000e+000 2.500000e+000
         vertex 1.875000e+001 2.750000e+000 4.000000e+000
         vertex 1.875000e+001 2.750000e+000 2.500000e+000
      endloop
   endfacet
   facet normal 0.000000e+000 1.000000e+000 0.000000e+000
      outer loop
         vertex 1.875000e+001 2.750000e+000 4.000000e+000
         vertex 6.750000e+000 2.750000e+000 2.500000e+000
         vertex 6.750000e+000 2.750000e+000 4.000000e+000
      endloop
   endfacet
   facet normal 1.000000e+000 0.000000e+000 0.000000e+000
      outer loop
         vertex 6.750000e+000 1.475000e+001 2.500000e+000
         vertex 6.750000e+000 2.750000e+000 4.000000e+000
         vertex 6.750000e+000 2.750000e+000 2.500000e+000
      endloop
   endfacet
   facet normal 1.000000e+000 0.000000e+000 -0.000000e+000
      outer loop
         vertex 6.750000e+000 2.750000e+000 4.000000e+000
         vertex 6.750000e+000 1.475000e+001 2.500000e+000
         vertex 6.750000e+000 1.475000e+001 4.000000e+000
      endloop
   endfacet
   facet normal 0.000000e+000 -1.000000e+000 0.000000e+000
      outer loop
         vertex 1.875000e+001 1.475000e+001 2.500000e+000
         vertex 6.750000e+000 1.475000e+001 4.000000e+000
         vertex 6.750000e+000 1.475000e+001 2.500000e+000
      endloop
   endfacet
   facet normal 0.000000e+000 -1.000000e+000 0.000000e+000
      outer loop
         vertex 6.750000e+000 1.475000e+001 4.000000e+000
         vertex 1.875000e+001 1.475000e+001 2.500000e+000
         vertex 1.875000e+001 1.475000e+001 4.000000e+000
      endloop
   endfacet
   facet normal -1.000000e+000 0.000000e+000 -0.000000e+000
      outer loop
         vertex 1.875000e+001 2.750000e+000 2.500000e+000
         vertex 1.875000e+001 1.475000e+001 4.000000e+000
         vertex 1.875000e+001 1.475000e+001 2.500000e+000
      endloop
   endfacet
   facet normal -1.000000e+000 0.000000e+000 0.000000e+000
      outer loop
         vertex 1.875000e+001 1.475000e+001 4.000000e+000
         vertex 1.875000e+001 2.750000e+000 2.500000e+000
         vertex 1.875000e+001 2.750000e+000 4.000000e+000
      endloop
   endfacet
   facet normal 0.000000e+000 0.000000e+000 -1.000000e+000
      outer loop
         vertex 0.000000e+000 5.050000e+001 1.000000e+000
         vertex -2.250000e+000 -2.500000e-001 1.000000e+000
         vertex -2.250000e+000 5.075000e+001 1.000000e+000
      endloop
   endfacet
   facet normal 0.000000e+000 0.000000e+000 -1.000000e+000
      outer loop
         vertex 0.000000e+000 0.000000e+000 1.000000e+000
         vertex -2.097759e+000 -1.015367e+000 1.000000e+000
         vertex -2.211571e+000 -6.401806e-001 1.000000e+000
      endloop
   endfacet
   facet normal 0.000000e+000 0.000000e+000 -1.000000e+000
      outer loop
         vertex 0.000000e+000 0.000000e+000 1.000000e+000
         vertex -1.664214e+000 -1.664214e+000 1.000000e+000
         vertex -1.912939e+000 -1.361140e+000 1.000000e+000
      endloop
   endfacet
   facet normal 0.000000e+000 0.000000e+000 -1.000000e+000
      outer loop
         vertex 0.000000e+000 0.000000e+000 1.000000e+000
         vertex -1.015367e+000 -2.097759e+000 1.000000e+000
         vertex -1.361140e+000 -1.912939e+000 1.000000e+000
      endloop
   endfacet
   facet normal 0.000000e+000 0.000000e+000 -1.000000e+000
      outer loop
         vertex 0.000000e+000 0.000000e+000 1.000000e+000
         vertex -2.500000e-001 -2.250000e+000 1.000000e+000
         vertex -6.401806e-001 -2.211571e+000 1.000000e+000
      endloop
   endfacet
   facet normal -0.000000e+000 0.000000e+000 -1.000000e+000
      outer loop
         vertex 7.050000e+001 0.000000e+000 1.000000e+000
         vertex 7.114018e+001 -2.211571e+000 1.000000e+000
         vertex 7.075000e+001 -2.250000e+000 1.000000e+000
      endloop
   endfacet
   facet normal -0.000000e+000 0.000000e+000 -1.000000e+000
      outer loop
         vertex 7.050000e+001 0.000000e+000 1.000000e+000
         vertex 7.186114e+001 -1.912939e+000 1.000000e+000
         vertex 7.151537e+001 -2.097759e+000 1.000000e+000
      endloop
   endfacet
   facet normal -0.000000e+000 0.000000e+000 -1.000000e+000
      outer loop
         vertex 7.050000e+001 0.000000e+000 1.000000e+000
         vertex 7.241294e+001 -1.361140e+000 1.000000e+000
         vertex 7.216422e+001 -1.664214e+000 1.000000e+000
      endloop
   endfacet
   facet normal -0.000000e+000 0.000000e+000 -1.000000e+000
      outer loop
         vertex 7.050000e+001 0.000000e+000 1.000000e+000
         vertex 7.271157e+001 -6.401806e-001 1.000000e+000
         vertex 7.259776e+001 -1.015367e+000 1.000000e+000
      endloop
   endfacet
   facet normal 0.000000e+000 -0.000000e+000 -1.000000e+000
      outer loop
         vertex 7.050000e+001 5.050000e+001 1.000000e+000
         vertex 7.275000e+001 5.075000e+001 1.000000e+000
         vertex 7.275000e+001 -2.500000e-001 1.000000e+000
      endloop
   endfacet
   facet normal 0.000000e+000 -0.000000e+000 -1.000000e+000
      outer loop
         vertex 7.050000e+001 5.050000e+001 1.000000e+000
         vertex 7.259776e+001 5.151537e+001 1.000000e+000
         vertex 7.271157e+001 5.114018e+001 1.000000e+000
      endloop
   endfacet
   facet normal 0.000000e+000 -0.000000e+000 -1.000000e+000
      outer loop
         vertex 7.050000e+001 5.050000e+001 1.000000e+000
         vertex 7.216422e+001 5.216422e+001 1.000000e+000
         vertex 7.241294e+001 5.186114e+001 1.000000e+000
      endloop
   endfacet
   facet normal 0.000000e+000 -0.000000e+000 -1.000000e+000
      outer loop
         vertex 7.050000e+001 5.050000e+001 1.000000e+000
         vertex 7.151537e+001 5.259776e+001 1.000000e+000
         vertex 7.186114e+001 5.241294e+001 1.000000e+000
      endloop
   endfacet
   facet normal 0.000000e+000 -0.000000e+000 -1.000000e+000
      outer loop
         vertex 7.050000e+001 5.050000e+001 1.000000e+000
         vertex 7.075000e+001 5.275000e+001 1.000000e+000
         vertex 7.114018e+001 5.271157e+001 1.000000e+000
      endloop
   endfacet
   facet normal 0.000000e+000 0.000000e+000 -1.000000e+000
      outer loop
         vertex 0.000000e+000 5.050000e+001 1.000000e+000
         vertex -6.401806e-001 5.271157e+001 1.000000e+000
         vertex -2.500000e-001 5.275000e+001 1.000000e+000
      endloop
   endfacet
   facet normal 0.000000e+000 0.000000e+000 -1.000000e+000
      outer loop
         vertex 0.000000e+000 5.050000e+001 1.000000e+000
         vertex -1.361140e+000 5.241294e+001 1.000000e+000
         vertex -1.015367e+000 5.259776e+001 1.000000e+000
      endloop
   endfacet
   facet normal 0.000000e+000 0.000000e+000 -1.000000e+000
      outer loop
         vertex 0.000000e+000 5.050000e+001 1.000000e+000
         vertex -1.912939e+000 5.186114e+001 1.000000e+000
         vertex -1.664214e+000 5.216422e+001 1.000000e+000
      endloop
   endfacet
   facet normal 0.000000e+000 0.000000e+000 -1.000000e+000
      outer loop
         vertex 0.000000e+000 5.050000e+001 1.000000e+000
         vertex -2.211571e+000 5.114018e+001 1.000000e+000
         vertex -2.097759e+000 5.151537e+001 1.000000e+000
      endloop
   endfacet
   facet normal -0.000000e+000 -0.000000e+000 -1.000000e+000
      outer loop
         vertex 3.000000e+000 5.050000e+001 1.000000e+000
         vertex 6.750000e+001 5.050000e+001 1.000000e+000
         vertex 6.750000e+001 3.300000e+001 1.000000e+000
      endloop
   endfacet
   facet normal 0.000000e+000 0.000000e+000 -1.000000e+000
      outer loop
         vertex 7.275000e+001 -2.500000e-001 1.000000e+000
         vertex 7.050000e+001 0.000000e+000 1.000000e+000
         vertex 7.050000e+001 5.050000e+001 1.000000e+000
      endloop
   endfacet
   facet normal 0.000000e+000 0.000000e+000 -1.000000e+000
      outer loop
         vertex 7.075000e+001 -2.250000e+000 1.000000e+000
         vertex 3.000000e+000 5.857878e-033 1.000000e+000
         vertex 6.750000e+001 0.000000e+000 1.000000e+000
      endloop
   endfacet
   facet normal 0.000000e+000 -0.000000e+000 -1.000000e+000
      outer loop
         vertex -2.250000e+000 -2.500000e-001 1.000000e+000
         vertex 0.000000e+000 5.050000e+001 1.000000e+000
         vertex 0.000000e+000 0.000000e+000 1.000000e+000
      endloop
   endfacet
   facet normal 0.000000e+000 0.000000e+000 -1.000000e+000
      outer loop
         vertex 6.750000e+001 3.300000e+001 1.000000e+000
         vertex 3.000000e+000 3.300000e+001 1.000000e+000
         vertex 3.000000e+000 5.050000e+001 1.000000e+000
      endloop
   endfacet
   facet normal 0.000000e+000 0.000000e+000 -1.000000e+000
      outer loop
         vertex -2.250000e+000 -2.500000e-001 1.000000e+000
         vertex 0.000000e+000 0.000000e+000 1.000000e+000
         vertex -2.211571e+000 -6.401806e-001 1.000000e+000
      endloop
   endfacet
   facet normal 0.000000e+000 0.000000e+000 -1.000000e+000
      outer loop
         vertex -1.361140e+000 -1.912939e+000 1.000000e+000
         vertex -1.664214e+000 -1.664214e+000 1.000000e+000
         vertex 0.000000e+000 0.000000e+000 1.000000e+000
      endloop
   endfacet
   facet normal 0.000000e+000 0.000000e+000 -1.000000e+000
      outer loop
         vertex 3.000000e+000 5.857878e-033 1.000000e+000
         vertex -2.500000e-001 -2.250000e+000 1.000000e+000
         vertex 0.000000e+000 0.000000e+000 1.000000e+000
      endloop
   endfacet
   facet normal 0.000000e+000 0.000000e+000 -1.000000e+000
      outer loop
         vertex 7.114018e+001 -2.211571e+000 1.000000e+000
         vertex 7.050000e+001 0.000000e+000 1.000000e+000
         vertex 7.151537e+001 -2.097759e+000 1.000000e+000
      endloop
   endfacet
   facet normal 0.000000e+000 0.000000e+000 -1.000000e+000
      outer loop
         vertex 7.241294e+001 -1.361140e+000 1.000000e+000
         vertex 7.050000e+001 0.000000e+000 1.000000e+000
         vertex 7.259776e+001 -1.015367e+000 1.000000e+000
      endloop
   endfacet
   facet normal -0.000000e+000 0.000000e+000 -1.000000e+000
      outer loop
         vertex 7.241294e+001 5.186114e+001 1.000000e+000
         vertex 7.259776e+001 5.151537e+001 1.000000e+000
         vertex 7.050000e+001 5.050000e+001 1.000000e+000
      endloop
   endfacet
   facet normal -0.000000e+000 0.000000e+000 -1.000000e+000
      outer loop
         vertex 7.114018e+001 5.271157e+001 1.000000e+000
         vertex 7.151537e+001 5.259776e+001 1.000000e+000
         vertex 7.050000e+001 5.050000e+001 1.000000e+000
      endloop
   endfacet
   facet normal 0.000000e+000 -0.000000e+000 -1.000000e+000
      outer loop
         vertex -1.015367e+000 5.259776e+001 1.000000e+000
         vertex -6.401806e-001 5.271157e+001 1.000000e+000
         vertex 0.000000e+000 5.050000e+001 1.000000e+000
      endloop
   endfacet
   facet normal 0.000000e+000 -0.000000e+000 -1.000000e+000
      outer loop
         vertex -2.097759e+000 5.151537e+001 1.000000e+000
         vertex -1.912939e+000 5.186114e+001 1.000000e+000
         vertex 0.000000e+000 5.050000e+001 1.000000e+000
      endloop
   endfacet
   facet normal 0.000000e+000 0.000000e+000 -1.000000e+000
      outer loop
         vertex 7.271157e+001 -6.401806e-001 1.000000e+000
         vertex 7.050000e+001 0.000000e+000 1.000000e+000
         vertex 7.275000e+001 -2.500000e-001 1.000000e+000
      endloop
   endfacet
   facet normal 0.000000e+000 0.000000e+000 -1.000000e+000
      outer loop
         vertex 0.000000e+000 0.000000e+000 1.000000e+000
         vertex -1.912939e+000 -1.361140e+000 1.000000e+000
         vertex -2.097759e+000 -1.015367e+000 1.000000e+000
      endloop
   endfacet
   facet normal 0.000000e+000 0.000000e+000 -1.000000e+000
      outer loop
         vertex 3.000000e+000 5.857878e-033 1.000000e+000
         vertex 7.075000e+001 -2.250000e+000 1.000000e+000
         vertex -2.500000e-001 -2.250000e+000 1.000000e+000
      endloop
   endfacet
   facet normal 0.000000e+000 -0.000000e+000 -1.000000e+000
      outer loop
         vertex 7.050000e+001 5.050000e+001 1.000000e+000
         vertex 7.271157e+001 5.114018e+001 1.000000e+000
         vertex 7.275000e+001 5.075000e+001 1.000000e+000
      endloop
   endfacet
   facet normal 0.000000e+000 0.000000e+000 -1.000000e+000
      outer loop
         vertex 6.750000e+001 5.050000e+001 1.000000e+000
         vertex -2.500000e-001 5.275000e+001 1.000000e+000
         vertex 7.075000e+001 5.275000e+001 1.000000e+000
      endloop
   endfacet
   facet normal 0.000000e+000 0.000000e+000 -1.000000e+000
      outer loop
         vertex 0.000000e+000 5.050000e+001 1.000000e+000
         vertex -2.250000e+000 5.075000e+001 1.000000e+000
         vertex -2.211571e+000 5.114018e+001 1.000000e+000
      endloop
   endfacet
   facet normal 0.000000e+000 0.000000e+000 -1.000000e+000
      outer loop
         vertex 7.075000e+001 -2.250000e+000 1.000000e+000
         vertex 6.750000e+001 0.000000e+000 1.000000e+000
         vertex 7.050000e+001 0.000000e+000 1.000000e+000
      endloop
   endfacet
   facet normal 0.000000e+000 0.000000e+000 -1.000000e+000
      outer loop
         vertex -6.401806e-001 -2.211571e+000 1.000000e+000
         vertex -1.015367e+000 -2.097759e+000 1.000000e+000
         vertex 0.000000e+000 0.000000e+000 1.000000e+000
      endloop
   endfacet
   facet normal -0.000000e+000 0.000000e+000 -1.000000e+000
      outer loop
         vertex 7.186114e+001 5.241294e+001 1.000000e+000
         vertex 7.216422e+001 5.216422e+001 1.000000e+000
         vertex 7.050000e+001 5.050000e+001 1.000000e+000
      endloop
   endfacet
   facet normal 0.000000e+000 -0.000000e+000 -1.000000e+000
      outer loop
         vertex -1.664214e+000 5.216422e+001 1.000000e+000
         vertex -1.361140e+000 5.241294e+001 1.000000e+000
         vertex 0.000000e+000 5.050000e+001 1.000000e+000
      endloop
   endfacet
   facet normal 0.000000e+000 0.000000e+000 -1.000000e+000
      outer loop
         vertex 3.000000e+000 5.050000e+001 1.000000e+000
         vertex -2.500000e-001 5.275000e+001 1.000000e+000
         vertex 6.750000e+001 5.050000e+001 1.000000e+000
      endloop
   endfacet
   facet normal -0.000000e+000 0.000000e+000 -1.000000e+000
      outer loop
         vertex 7.050000e+001 0.000000e+000 1.000000e+000
         vertex 7.216422e+001 -1.664214e+000 1.000000e+000
         vertex 7.186114e+001 -1.912939e+000 1.000000e+000
      endloop
   endfacet
   facet normal 0.000000e+000 0.000000e+000 -1.000000e+000
      outer loop
         vertex -2.500000e-001 5.275000e+001 1.000000e+000
         vertex 3.000000e+000 5.050000e+001 1.000000e+000
         vertex 0.000000e+000 5.050000e+001 1.000000e+000
      endloop
   endfacet
   facet normal 0.000000e+000 0.000000e+000 -1.000000e+000
      outer loop
         vertex 7.050000e+001 5.050000e+001 1.000000e+000
         vertex 6.750000e+001 5.050000e+001 1.000000e+000
         vertex 7.075000e+001 5.275000e+001 1.000000e+000
      endloop
   endfacet
   facet normal 0.000000e+000 0.000000e+000 -1.000000e+000
      outer loop
         vertex 3.000000e+000 0.000000e+000 2.500000e+000
         vertex 3.000000e+000 3.300000e+001 2.500000e+000
         vertex 6.750000e+000 1.795000e+001 2.500000e+000
      endloop
   endfacet
   facet normal 0.000000e+000 0.000000e+000 -1.000000e+000
      outer loop
         vertex 6.750000e+001 3.300000e+001 2.500000e+000
         vertex 6.750000e+001 0.000000e+000 2.500000e+000
         vertex 6.435000e+001 1.795000e+001 2.500000e+000
      endloop
   endfacet
   facet normal -0.000000e+000 0.000000e+000 -1.000000e+000
      outer loop
         vertex 6.750000e+000 2.750000e+000 2.500000e+000
         vertex 1.875000e+001 2.750000e+000 2.500000e+000
         vertex 3.000000e+000 0.000000e+000 2.500000e+000
      endloop
   endfacet
   facet normal 0.000000e+000 0.000000e+000 -1.000000e+000
      outer loop
         vertex 1.875000e+001 1.475000e+001 2.500000e+000
         vertex 6.750000e+000 1.475000e+001 2.500000e+000
         vertex 6.750000e+000 1.795000e+001 2.500000e+000
      endloop
   endfacet
   facet normal 0.000000e+000 0.000000e+000 -1.000000e+000
      outer loop
         vertex 3.395000e+001 2.750000e+000 2.500000e+000
         vertex 3.395000e+001 1.475000e+001 2.500000e+000
         vertex 3.715000e+001 2.750000e+000 2.500000e+000
      endloop
   endfacet
   facet normal 0.000000e+000 0.000000e+000 -1.000000e+000
      outer loop
         vertex 2.195000e+001 1.475000e+001 2.500000e+000
         vertex 2.195000e+001 2.750000e+000 2.500000e+000
         vertex 1.875000e+001 2.750000e+000 2.500000e+000
      endloop
   endfacet
   facet normal 0.000000e+000 0.000000e+000 -1.000000e+000
      outer loop
         vertex 4.915000e+001 2.750000e+000 2.500000e+000
         vertex 4.915000e+001 1.475000e+001 2.500000e+000
         vertex 5.235000e+001 2.750000e+000 2.500000e+000
      endloop
   endfacet
   facet normal 0.000000e+000 0.000000e+000 -1.000000e+000
      outer loop
         vertex 3.715000e+001 1.475000e+001 2.500000e+000
         vertex 3.715000e+001 2.750000e+000 2.500000e+000
         vertex 3.395000e+001 1.475000e+001 2.500000e+000
      endloop
   endfacet
   facet normal 0.000000e+000 0.000000e+000 -1.000000e+000
      outer loop
         vertex 6.435000e+001 2.750000e+000 2.500000e+000
         vertex 6.435000e+001 1.475000e+001 2.500000e+000
         vertex 6.750000e+001 0.000000e+000 2.500000e+000
      endloop
   endfacet
   facet normal 0.000000e+000 0.000000e+000 -1.000000e+000
      outer loop
         vertex 5.235000e+001 1.475000e+001 2.500000e+000
         vertex 5.235000e+001 2.750000e+000 2.500000e+000
         vertex 4.915000e+001 1.475000e+001 2.500000e+000
      endloop
   endfacet
   facet normal 0.000000e+000 0.000000e+000 -1.000000e+000
      outer loop
         vertex 1.875000e+001 1.795000e+001 2.500000e+000
         vertex 1.875000e+001 2.995000e+001 2.500000e+000
         vertex 2.195000e+001 1.795000e+001 2.500000e+000
      endloop
   endfacet
   facet normal 0.000000e+000 0.000000e+000 -1.000000e+000
      outer loop
         vertex 6.750000e+000 2.995000e+001 2.500000e+000
         vertex 6.750000e+000 1.795000e+001 2.500000e+000
         vertex 3.000000e+000 3.300000e+001 2.500000e+000
      endloop
   endfacet
   facet normal 0.000000e+000 0.000000e+000 -1.000000e+000
      outer loop
         vertex 3.395000e+001 1.795000e+001 2.500000e+000
         vertex 3.395000e+001 2.995000e+001 2.500000e+000
         vertex 3.715000e+001 1.795000e+001 2.500000e+000
      endloop
   endfacet
   facet normal 0.000000e+000 0.000000e+000 -1.000000e+000
      outer loop
         vertex 2.195000e+001 2.995000e+001 2.500000e+000
         vertex 2.195000e+001 1.795000e+001 2.500000e+000
         vertex 1.875000e+001 2.995000e+001 2.500000e+000
      endloop
   endfacet
   facet normal 0.000000e+000 0.000000e+000 -1.000000e+000
      outer loop
         vertex 4.915000e+001 1.795000e+001 2.500000e+000
         vertex 4.915000e+001 2.995000e+001 2.500000e+000
         vertex 5.235000e+001 1.795000e+001 2.500000e+000
      endloop
   endfacet
   facet normal 0.000000e+000 0.000000e+000 -1.000000e+000
      outer loop
         vertex 3.715000e+001 2.995000e+001 2.500000e+000
         vertex 3.715000e+001 1.795000e+001 2.500000e+000
         vertex 3.395000e+001 2.995000e+001 2.500000e+000
      endloop
   endfacet
   facet normal 0.000000e+000 0.000000e+000 -1.000000e+000
      outer loop
         vertex 6.435000e+001 1.795000e+001 2.500000e+000
         vertex 6.435000e+001 2.995000e+001 2.500000e+000
         vertex 6.750000e+001 3.300000e+001 2.500000e+000
      endloop
   endfacet
   facet normal 0.000000e+000 0.000000e+000 -1.000000e+000
      outer loop
         vertex 5.235000e+001 2.995000e+001 2.500000e+000
         vertex 5.235000e+001 1.795000e+001 2.500000e+000
         vertex 4.915000e+001 2.995000e+001 2.500000e+000
      endloop
   endfacet
   facet normal 0.000000e+000 0.000000e+000 -1.000000e+000
      outer loop
         vertex 6.435000e+001 1.795000e+001 2.500000e+000
         vertex 6.750000e+001 0.000000e+000 2.500000e+000
         vertex 6.435000e+001 1.475000e+001 2.500000e+000
      endloop
   endfacet
   facet normal 0.000000e+000 -0.000000e+000 -1.000000e+000
      outer loop
         vertex 3.000000e+000 0.000000e+000 2.500000e+000
         vertex 1.875000e+001 2.750000e+000 2.500000e+000
         vertex 2.195000e+001 2.750000e+000 2.500000e+000
      endloop
   endfacet
   facet normal 0.000000e+000 0.000000e+000 -1.000000e+000
      outer loop
         vertex 2.195000e+001 1.475000e+001 2.500000e+000
         vertex 1.875000e+001 2.750000e+000 2.500000e+000
         vertex 1.875000e+001 1.475000e+001 2.500000e+000
      endloop
   endfacet
   facet normal 0.000000e+000 0.000000e+000 -1.000000e+000
      outer loop
         vertex 6.435000e+001 2.750000e+000 2.500000e+000
         vertex 6.750000e+001 0.000000e+000 2.500000e+000
         vertex 5.235000e+001 2.750000e+000 2.500000e+000
      endloop
   endfacet
   facet normal 0.000000e+000 0.000000e+000 -1.000000e+000
      outer loop
         vertex 6.750000e+000 2.995000e+001 2.500000e+000
         vertex 3.000000e+000 3.300000e+001 2.500000e+000
         vertex 1.875000e+001 2.995000e+001 2.500000e+000
      endloop
   endfacet
   facet normal -0.000000e+000 0.000000e+000 -1.000000e+000
      outer loop
         vertex 4.915000e+001 1.795000e+001 2.500000e+000
         vertex 5.235000e+001 1.795000e+001 2.500000e+000
         vertex 4.915000e+001 1.475000e+001 2.500000e+000
      endloop
   endfacet
   facet normal 0.000000e+000 0.000000e+000 -1.000000e+000
      outer loop
         vertex 6.750000e+001 3.300000e+001 2.500000e+000
         vertex 6.435000e+001 2.995000e+001 2.500000e+000
         vertex 5.235000e+001 2.995000e+001 2.500000e+000
      endloop
   endfacet
   facet normal 0.000000e+000 -0.000000e+000 -1.000000e+000
      outer loop
         vertex 3.000000e+000 0.000000e+000 2.500000e+000
         vertex 2.195000e+001 2.750000e+000 2.500000e+000
         vertex 3.395000e+001 2.750000e+000 2.500000e+000
      endloop
   endfacet
   facet normal 0.000000e+000 0.000000e+000 -1.000000e+000
      outer loop
         vertex 1.875000e+001 2.995000e+001 2.500000e+000
         vertex 3.000000e+000 3.300000e+001 2.500000e+000
         vertex 2.195000e+001 2.995000e+001 2.500000e+000
      endloop
   endfacet
   facet normal 0.000000e+000 -0.000000e+000 -1.000000e+000
      outer loop
         vertex 3.000000e+000 0.000000e+000 2.500000e+000
         vertex 3.395000e+001 2.750000e+000 2.500000e+000
         vertex 3.715000e+001 2.750000e+000 2.500000e+000
      endloop
   endfacet
   facet normal -0.000000e+000 0.000000e+000 -1.000000e+000
      outer loop
         vertex 3.000000e+000 3.300000e+001 2.500000e+000
         vertex 6.750000e+001 3.300000e+001 2.500000e+000
         vertex 3.395000e+001 2.995000e+001 2.500000e+000
      endloop
   endfacet
   facet normal -0.000000e+000 0.000000e+000 -1.000000e+000
      outer loop
         vertex 6.750000e+000 1.475000e+001 2.500000e+000
         vertex 6.750000e+000 2.750000e+000 2.500000e+000
         vertex 3.000000e+000 0.000000e+000 2.500000e+000
      endloop
   endfacet
   facet normal 0.000000e+000 0.000000e+000 -1.000000e+000
      outer loop
         vertex 4.915000e+001 1.475000e+001 2.500000e+000
         vertex 3.715000e+001 1.475000e+001 2.500000e+000
         vertex 3.715000e+001 1.795000e+001 2.500000e+000
      endloop
   endfacet
   facet normal -0.000000e+000 -0.000000e+000 -1.000000e+000
      outer loop
         vertex 6.750000e+000 1.795000e+001 2.500000e+000
         vertex 1.875000e+001 1.795000e+001 2.500000e+000
         vertex 1.875000e+001 1.475000e+001 2.500000e+000
      endloop
   endfacet
   facet normal -0.000000e+000 -0.000000e+000 -1.000000e+000
      outer loop
         vertex 3.715000e+001 1.795000e+001 2.500000e+000
         vertex 4.915000e+001 1.795000e+001 2.500000e+000
         vertex 4.915000e+001 1.475000e+001 2.500000e+000
      endloop
   endfacet
   facet normal -0.000000e+000 -0.000000e+000 -1.000000e+000
      outer loop
         vertex 5.235000e+001 1.795000e+001 2.500000e+000
         vertex 6.435000e+001 1.795000e+001 2.500000e+000
         vertex 6.435000e+001 1.475000e+001 2.500000e+000
      endloop
   endfacet
   facet normal 0.000000e+000 0.000000e+000 -1.000000e+000
      outer loop
         vertex 3.715000e+001 1.475000e+001 2.500000e+000
         vertex 3.395000e+001 1.475000e+001 2.500000e+000
         vertex 3.395000e+001 1.795000e+001 2.500000e+000
      endloop
   endfacet
   facet normal -0.000000e+000 -0.000000e+000 -1.000000e+000
      outer loop
         vertex 1.875000e+001 1.795000e+001 2.500000e+000
         vertex 2.195000e+001 1.795000e+001 2.500000e+000
         vertex 2.195000e+001 1.475000e+001 2.500000e+000
      endloop
   endfacet
   facet normal 0.000000e+000 0.000000e+000 -1.000000e+000
      outer loop
         vertex 2.195000e+001 1.475000e+001 2.500000e+000
         vertex 1.875000e+001 1.475000e+001 2.500000e+000
         vertex 1.875000e+001 1.795000e+001 2.500000e+000
      endloop
   endfacet
   facet normal 0.000000e+000 -0.000000e+000 -1.000000e+000
      outer loop
         vertex 4.915000e+001 1.475000e+001 2.500000e+000
         vertex 5.235000e+001 1.795000e+001 2.500000e+000
         vertex 5.235000e+001 1.475000e+001 2.500000e+000
      endloop
   endfacet
   facet normal 0.000000e+000 -0.000000e+000 -1.000000e+000
      outer loop
         vertex 3.000000e+000 0.000000e+000 2.500000e+000
         vertex 3.715000e+001 2.750000e+000 2.500000e+000
         vertex 4.915000e+001 2.750000e+000 2.500000e+000
      endloop
   endfacet
   facet normal 0.000000e+000 0.000000e+000 -1.000000e+000
      outer loop
         vertex 3.715000e+001 1.795000e+001 2.500000e+000
         vertex 3.715000e+001 1.475000e+001 2.500000e+000
         vertex 3.395000e+001 1.795000e+001 2.500000e+000
      endloop
   endfacet
   facet normal 0.000000e+000 0.000000e+000 -1.000000e+000
      outer loop
         vertex 2.195000e+001 1.475000e+001 2.500000e+000
         vertex 2.195000e+001 1.795000e+001 2.500000e+000
         vertex 3.395000e+001 1.475000e+001 2.500000e+000
      endloop
   endfacet
   facet normal 0.000000e+000 0.000000e+000 -1.000000e+000
      outer loop
         vertex 3.395000e+001 1.475000e+001 2.500000e+000
         vertex 2.195000e+001 1.795000e+001 2.500000e+000
         vertex 3.395000e+001 1.795000e+001 2.500000e+000
      endloop
   endfacet
   facet normal 0.000000e+000 0.000000e+000 -1.000000e+000
      outer loop
         vertex 6.750000e+001 0.000000e+000 2.500000e+000
         vertex 3.000000e+000 0.000000e+000 2.500000e+000
         vertex 4.915000e+001 2.750000e+000 2.500000e+000
      endloop
   endfacet
   facet normal 0.000000e+000 -0.000000e+000 -1.000000e+000
      outer loop
         vertex 3.000000e+000 0.000000e+000 2.500000e+000
         vertex 6.750000e+000 1.795000e+001 2.500000e+000
         vertex 6.750000e+000 1.475000e+001 2.500000e+000
      endloop
   endfacet
   facet normal 0.000000e+000 0.000000e+000 -1.000000e+000
      outer loop
         vertex 2.195000e+001 2.995000e+001 2.500000e+000
         vertex 3.000000e+000 3.300000e+001 2.500000e+000
         vertex 3.395000e+001 2.995000e+001 2.500000e+000
      endloop
   endfacet
   facet normal 0.000000e+000 0.000000e+000 -1.000000e+000
      outer loop
         vertex 5.235000e+001 1.475000e+001 2.500000e+000
         vertex 5.235000e+001 1.795000e+001 2.500000e+000
         vertex 6.435000e+001 1.475000e+001 2.500000e+000
      endloop
   endfacet
   facet normal 0.000000e+000 0.000000e+000 -1.000000e+000
      outer loop
         vertex 3.395000e+001 2.995000e+001 2.500000e+000
         vertex 6.750000e+001 3.300000e+001 2.500000e+000
         vertex 3.715000e+001 2.995000e+001 2.500000e+000
      endloop
   endfacet
   facet normal 0.000000e+000 0.000000e+000 -1.000000e+000
      outer loop
         vertex 6.750000e+001 0.000000e+000 2.500000e+000
         vertex 4.915000e+001 2.750000e+000 2.500000e+000
         vertex 5.235000e+001 2.750000e+000 2.500000e+000
      endloop
   endfacet
   facet normal 0.000000e+000 0.000000e+000 -1.000000e+000
      outer loop
         vertex 3.715000e+001 2.995000e+001 2.500000e+000
         vertex 6.750000e+001 3.300000e+001 2.500000e+000
         vertex 4.915000e+001 2.995000e+001 2.500000e+000
      endloop
   endfacet
   facet normal 0.000000e+000 0.000000e+000 -1.000000e+000
      outer loop
         vertex 4.915000e+001 2.995000e+001 2.500000e+000
         vertex 6.750000e+001 3.300000e+001 2.500000e+000
         vertex 5.235000e+001 2.995000e+001 2.500000e+000
      endloop
   endfacet
   facet normal 0.000000e+000 1.000000e+000 0.000000e+000
      outer loop
         vertex 3.000000e+000 0.000000e+000 2.500000e+000
         vertex 6.750000e+001 0.000000e+000 2.500000e+000
         vertex 6.750000e+001 0.000000e+000 1.000000e+000
      endloop
   endfacet
   facet normal 9.081982e-035 1.000000e+000 3.905252e-033
      outer loop
         vertex 3.000000e+000 0.000000e+000 2.500000e+000
         vertex 6.750000e+001 0.000000e+000 1.000000e+000
         vertex 3.000000e+000 5.857878e-033 1.000000e+000
      endloop
   endfacet
   facet normal 0.000000e+000 -1.000000e+000 0.000000e+000
      outer loop
         vertex 6.750000e+001 3.300000e+001 2.500000e+000
         vertex 3.000000e+000 3.300000e+001 2.500000e+000
         vertex 3.000000e+000 3.300000e+001 1.000000e+000
      endloop
   endfacet
   facet normal 0.000000e+000 -1.000000e+000 0.000000e+000
      outer loop
         vertex 6.750000e+001 3.300000e+001 2.500000e+000
         vertex 3.000000e+000 3.300000e+001 1.000000e+000
         vertex 6.750000e+001 3.300000e+001 1.000000e+000
      endloop
   endfacet
   facet normal -0.000000e+000 1.000000e+000 0.000000e+000
      outer loop
         vertex 6.750000e+001 5.050000e+001 0.000000e+000
         vertex 6.750000e+001 5.050000e+001 1.000000e+000
         vertex 7.050000e+001 5.050000e+001 1.000000e+000
      endloop
   endfacet
   facet normal 0.000000e+000 1.000000e+000 0.000000e+000
      outer loop
         vertex 7.050000e+001 5.050000e+001 0.000000e+000
         vertex 6.750000e+001 5.050000e+001 0.000000e+000
         vertex 7.050000e+001 5.050000e+001 1.000000e+000
      endloop
   endfacet
   facet normal -0.000000e+000 -0.000000e+000 -1.000000e+000
      outer loop
         vertex 6.750000e+001 5.050000e+001 0.000000e+000
         vertex 7.050000e+001 5.050000e+001 0.000000e+000
         vertex 7.050000e+001 0.000000e+000 0.000000e+000
      endloop
   endfacet
   facet normal 0.000000e+000 0.000000e+000 -1.000000e+000
      outer loop
         vertex 6.750000e+001 5.050000e+001 0.000000e+000
         vertex 7.050000e+001 0.000000e+000 0.000000e+000
         vertex 6.750000e+001 0.000000e+000 0.000000e+000
      endloop
   endfacet
   facet normal -0.000000e+000 -1.000000e+000 -0.000000e+000
      outer loop
         vertex 7.050000e+001 0.000000e+000 0.000000e+000
         vertex 7.050000e+001 0.000000e+000 1.000000e+000
         vertex 6.750000e+001 0.000000e+000 1.000000e+000
      endloop
   endfacet
   facet normal 0.000000e+000 -1.000000e+000 0.000000e+000
      outer loop
         vertex 6.750000e+001 0.000000e+000 0.000000e+000
         vertex 7.050000e+001 0.000000e+000 0.000000e+000
         vertex 6.750000e+001 0.000000e+000 1.000000e+000
      endloop
   endfacet
   facet normal 1.952626e-033 -1.000000e+000 5.857878e-033
      outer loop
         vertex 3.000000e+000 0.000000e+000 0.000000e+000
         vertex 3.000000e+000 5.857878e-033 1.000000e+000
         vertex 0.000000e+000 0.000000e+000 1.000000e+000
      endloop
   endfacet
   facet normal 0.000000e+000 -1.000000e+000 0.000000e+000
      outer loop
         vertex 0.000000e+000 0.000000e+000 0.000000e+000
         vertex 3.000000e+000 0.000000e+000 0.000000e+000
         vertex 0.000000e+000 0.000000e+000 1.000000e+000
      endloop
   endfacet
   facet normal -0.000000e+000 -0.000000e+000 -1.000000e+000
      outer loop
         vertex 0.000000e+000 5.050000e+001 0.000000e+000
         vertex 3.000000e+000 5.050000e+001 0.000000e+000
         vertex 3.000000e+000 0.000000e+000 0.000000e+000
      endloop
   endfacet
   facet normal 0.000000e+000 0.000000e+000 -1.000000e+000
      outer loop
         vertex 0.000000e+000 5.050000e+001 0.000000e+000
         vertex 3.000000e+000 0.000000e+000 0.000000e+000
         vertex 0.000000e+000 0.000000e+000 0.000000e+000
      endloop
   endfacet
   facet normal -0.000000e+000 1.000000e+000 0.000000e+000
      outer loop
         vertex 0.000000e+000 5.050000e+001 0.000000e+000
         vertex 0.000000e+000 5.050000e+001 1.000000e+000
         vertex 3.000000e+000 5.050000e+001 1.000000e+000
      endloop
   endfacet
   facet normal 0.000000e+000 1.000000e+000 0.000000e+000
      outer loop
         vertex 3.000000e+000 5.050000e+001 0.000000e+000
         vertex 0.000000e+000 5.050000e+001 0.000000e+000
         vertex 3.000000e+000 5.050000e+001 1.000000e+000
      endloop
   endfacet
   facet normal -0.000000e+000 0.000000e+000 1.000000e+000
      outer loop
         vertex 7.075000e+001 5.275000e+001 4.000000e+000
         vertex -2.500000e-001 5.275000e+001 4.000000e+000
         vertex 3.395000e+001 2.995000e+001 4.000000e+000
      endloop
   endfacet
   facet normal -0.000000e+000 0.000000e+000 1.000000e+000
      outer loop
         vertex -6.401806e-001 5.271157e+001 4.000000e+000
         vertex -1.015367e+000 5.259776e+001 4.000000e+000
         vertex -1.664214e+000 5.216422e+001 4.000000e+000
      endloop
   endfacet
   facet normal 0.000000e+000 0.000000e+000 1.000000e+000
      outer loop
         vertex -1.361140e+000 5.241294e+001 4.000000e+000
         vertex -1.664214e+000 5.216422e+001 4.000000e+000
         vertex -1.015367e+000 5.259776e+001 4.000000e+000
      endloop
   endfacet
   facet normal 0.000000e+000 0.000000e+000 1.000000e+000
      outer loop
         vertex -2.097759e+000 5.151537e+001 4.000000e+000
         vertex -2.211571e+000 5.114018e+001 4.000000e+000
         vertex -1.664214e+000 5.216422e+001 4.000000e+000
      endloop
   endfacet
   facet normal 0.000000e+000 0.000000e+000 1.000000e+000
      outer loop
         vertex -2.250000e+000 5.075000e+001 4.000000e+000
         vertex -2.250000e+000 -2.500000e-001 4.000000e+000
         vertex 6.750000e+000 2.995000e+001 4.000000e+000
      endloop
   endfacet
   facet normal 0.000000e+000 0.000000e+000 1.000000e+000
      outer loop
         vertex -2.211571e+000 -6.401806e-001 4.000000e+000
         vertex -2.097759e+000 -1.015367e+000 4.000000e+000
         vertex -2.250000e+000 -2.500000e-001 4.000000e+000
      endloop
   endfacet
   facet normal 0.000000e+000 0.000000e+000 1.000000e+000
      outer loop
         vertex -1.664214e+000 -1.664214e+000 4.000000e+000
         vertex -1.361140e+000 -1.912939e+000 4.000000e+000
         vertex -1.912939e+000 -1.361140e+000 4.000000e+000
      endloop
   endfacet
   facet normal 0.000000e+000 0.000000e+000 1.000000e+000
      outer loop
         vertex -6.401806e-001 -2.211571e+000 4.000000e+000
         vertex -2.500000e-001 -2.250000e+000 4.000000e+000
         vertex -2.250000e+000 -2.500000e-001 4.000000e+000
      endloop
   endfacet
   facet normal 0.000000e+000 -0.000000e+000 1.000000e+000
      outer loop
         vertex 7.075000e+001 -2.250000e+000 4.000000e+000
         vertex 7.114018e+001 -2.211571e+000 4.000000e+000
         vertex 7.241294e+001 -1.361140e+000 4.000000e+000
      endloop
   endfacet
   facet normal 0.000000e+000 -0.000000e+000 1.000000e+000
      outer loop
         vertex 7.151537e+001 -2.097759e+000 4.000000e+000
         vertex 7.186114e+001 -1.912939e+000 4.000000e+000
         vertex 7.216422e+001 -1.664214e+000 4.000000e+000
      endloop
   endfacet
   facet normal 0.000000e+000 -0.000000e+000 1.000000e+000
      outer loop
         vertex 7.241294e+001 -1.361140e+000 4.000000e+000
         vertex 7.259776e+001 -1.015367e+000 4.000000e+000
         vertex 7.271157e+001 -6.401806e-001 4.000000e+000
      endloop
   endfacet
   facet normal 0.000000e+000 0.000000e+000 1.000000e+000
      outer loop
         vertex 7.275000e+001 -2.500000e-001 4.000000e+000
         vertex 7.275000e+001 5.075000e+001 4.000000e+000
         vertex 6.435000e+001 2.995000e+001 4.000000e+000
      endloop
   endfacet
   facet normal 0.000000e+000 0.000000e+000 1.000000e+000
      outer loop
         vertex 7.271157e+001 5.114018e+001 4.000000e+000
         vertex 7.259776e+001 5.151537e+001 4.000000e+000
         vertex 7.275000e+001 5.075000e+001 4.000000e+000
      endloop
   endfacet
   facet normal 0.000000e+000 0.000000e+000 1.000000e+000
      outer loop
         vertex 7.216422e+001 5.216422e+001 4.000000e+000
         vertex 7.186114e+001 5.241294e+001 4.000000e+000
         vertex 7.075000e+001 5.275000e+001 4.000000e+000
      endloop
   endfacet
   facet normal 0.000000e+000 0.000000e+000 1.000000e+000
      outer loop
         vertex 7.151537e+001 5.259776e+001 4.000000e+000
         vertex 7.114018e+001 5.271157e+001 4.000000e+000
         vertex 7.075000e+001 5.275000e+001 4.000000e+000
      endloop
   endfacet
   facet normal -0.000000e+000 0.000000e+000 1.000000e+000
      outer loop
         vertex 6.435000e+001 1.795000e+001 4.000000e+000
         vertex 5.235000e+001 1.795000e+001 4.000000e+000
         vertex 6.435000e+001 1.475000e+001 4.000000e+000
      endloop
   endfacet
   facet normal 0.000000e+000 -0.000000e+000 1.000000e+000
      outer loop
         vertex 5.235000e+001 2.995000e+001 4.000000e+000
         vertex 6.435000e+001 2.995000e+001 4.000000e+000
         vertex 7.075000e+001 5.275000e+001 4.000000e+000
      endloop
   endfacet
   facet normal -0.000000e+000 0.000000e+000 1.000000e+000
      outer loop
         vertex 4.915000e+001 1.795000e+001 4.000000e+000
         vertex 3.715000e+001 1.795000e+001 4.000000e+000
         vertex 4.915000e+001 1.475000e+001 4.000000e+000
      endloop
   endfacet
   facet normal 0.000000e+000 0.000000e+000 1.000000e+000
      outer loop
         vertex 3.395000e+001 2.995000e+001 4.000000e+000
         vertex 3.395000e+001 1.795000e+001 4.000000e+000
         vertex 3.715000e+001 2.995000e+001 4.000000e+000
      endloop
   endfacet
   facet normal 0.000000e+000 0.000000e+000 1.000000e+000
      outer loop
         vertex 2.195000e+001 1.795000e+001 4.000000e+000
         vertex 2.195000e+001 2.995000e+001 4.000000e+000
         vertex 1.875000e+001 1.795000e+001 4.000000e+000
      endloop
   endfacet
   facet normal 0.000000e+000 0.000000e+000 1.000000e+000
      outer loop
         vertex 1.875000e+001 2.995000e+001 4.000000e+000
         vertex 1.875000e+001 1.795000e+001 4.000000e+000
         vertex 2.195000e+001 2.995000e+001 4.000000e+000
      endloop
   endfacet
   facet normal 0.000000e+000 0.000000e+000 1.000000e+000
      outer loop
         vertex 6.750000e+000 2.995000e+001 4.000000e+000
         vertex 1.875000e+001 2.995000e+001 4.000000e+000
         vertex -2.500000e-001 5.275000e+001 4.000000e+000
      endloop
   endfacet
   facet normal -0.000000e+000 0.000000e+000 1.000000e+000
      outer loop
         vertex 6.435000e+001 2.750000e+000 4.000000e+000
         vertex 5.235000e+001 2.750000e+000 4.000000e+000
         vertex 7.075000e+001 -2.250000e+000 4.000000e+000
      endloop
   endfacet
   facet normal 0.000000e+000 0.000000e+000 1.000000e+000
      outer loop
         vertex 5.235000e+001 1.475000e+001 4.000000e+000
         vertex 6.435000e+001 1.475000e+001 4.000000e+000
         vertex 5.235000e+001 1.795000e+001 4.000000e+000
      endloop
   endfacet
   facet normal 0.000000e+000 0.000000e+000 1.000000e+000
      outer loop
         vertex 3.715000e+001 2.750000e+000 4.000000e+000
         vertex 3.715000e+001 1.475000e+001 4.000000e+000
         vertex 3.395000e+001 2.750000e+000 4.000000e+000
      endloop
   endfacet
   facet normal 0.000000e+000 0.000000e+000 1.000000e+000
      outer loop
         vertex 3.395000e+001 1.475000e+001 4.000000e+000
         vertex 3.395000e+001 2.750000e+000 4.000000e+000
         vertex 3.715000e+001 1.475000e+001 4.000000e+000
      endloop
   endfacet
   facet normal 0.000000e+000 0.000000e+000 1.000000e+000
      outer loop
         vertex 2.195000e+001 2.750000e+000 4.000000e+000
         vertex 2.195000e+001 1.475000e+001 4.000000e+000
         vertex 1.875000e+001 2.750000e+000 4.000000e+000
      endloop
   endfacet
   facet normal 0.000000e+000 0.000000e+000 1.000000e+000
      outer loop
         vertex 1.875000e+001 1.475000e+001 4.000000e+000
         vertex 1.875000e+001 2.750000e+000 4.000000e+000
         vertex 2.195000e+001 1.475000e+001 4.000000e+000
      endloop
   endfacet
   facet normal 0.000000e+000 0.000000e+000 1.000000e+000
      outer loop
         vertex 6.750000e+000 2.750000e+000 4.000000e+000
         vertex 6.750000e+000 1.475000e+001 4.000000e+000
         vertex -2.250000e+000 -2.500000e-001 4.000000e+000
      endloop
   endfacet
   facet normal 0.000000e+000 0.000000e+000 1.000000e+000
      outer loop
         vertex 7.075000e+001 5.275000e+001 4.000000e+000
         vertex 3.395000e+001 2.995000e+001 4.000000e+000
         vertex 3.715000e+001 2.995000e+001 4.000000e+000
      endloop
   endfacet
   facet normal 0.000000e+000 0.000000e+000 1.000000e+000
      outer loop
         vertex -6.401806e-001 5.271157e+001 4.000000e+000
         vertex -1.664214e+000 5.216422e+001 4.000000e+000
         vertex -2.500000e-001 5.275000e+001 4.000000e+000
      endloop
   endfacet
   facet normal 0.000000e+000 0.000000e+000 1.000000e+000
      outer loop
         vertex -2.250000e+000 5.075000e+001 4.000000e+000
         vertex 6.750000e+000 2.995000e+001 4.000000e+000
         vertex -2.500000e-001 5.275000e+001 4.000000e+000
      endloop
   endfacet
   facet normal -0.000000e+000 -0.000000e+000 1.000000e+000
      outer loop
         vertex -2.250000e+000 -2.500000e-001 4.000000e+000
         vertex -2.097759e+000 -1.015367e+000 4.000000e+000
         vertex -1.015367e+000 -2.097759e+000 4.000000e+000
      endloop
   endfacet
   facet normal 0.000000e+000 0.000000e+000 1.000000e+000
      outer loop
         vertex -6.401806e-001 -2.211571e+000 4.000000e+000
         vertex -2.250000e+000 -2.500000e-001 4.000000e+000
         vertex -1.015367e+000 -2.097759e+000 4.000000e+000
      endloop
   endfacet
   facet normal 0.000000e+000 0.000000e+000 1.000000e+000
      outer loop
         vertex 7.241294e+001 -1.361140e+000 4.000000e+000
         vertex 7.114018e+001 -2.211571e+000 4.000000e+000
         vertex 7.151537e+001 -2.097759e+000 4.000000e+000
      endloop
   endfacet
   facet normal 0.000000e+000 0.000000e+000 1.000000e+000
      outer loop
         vertex 7.275000e+001 -2.500000e-001 4.000000e+000
         vertex 6.435000e+001 2.995000e+001 4.000000e+000
         vertex 6.435000e+001 1.795000e+001 4.000000e+000
      endloop
   endfacet
   facet normal 0.000000e+000 0.000000e+000 1.000000e+000
      outer loop
         vertex 7.216422e+001 5.216422e+001 4.000000e+000
         vertex 7.075000e+001 5.275000e+001 4.000000e+000
         vertex 7.275000e+001 5.075000e+001 4.000000e+000
      endloop
   endfacet
   facet normal 0.000000e+000 0.000000e+000 1.000000e+000
      outer loop
         vertex 7.151537e+001 5.259776e+001 4.000000e+000
         vertex 7.075000e+001 5.275000e+001 4.000000e+000
         vertex 7.186114e+001 5.241294e+001 4.000000e+000
      endloop
   endfacet
   facet normal 0.000000e+000 0.000000e+000 1.000000e+000
      outer loop
         vertex 4.915000e+001 1.795000e+001 4.000000e+000
         vertex 4.915000e+001 1.475000e+001 4.000000e+000
         vertex 5.235000e+001 1.475000e+001 4.000000e+000
      endloop
   endfacet
   facet normal 0.000000e+000 0.000000e+000 1.000000e+000
      outer loop
         vertex 3.715000e+001 2.995000e+001 4.000000e+000
         vertex 3.395000e+001 1.795000e+001 4.000000e+000
         vertex 3.715000e+001 1.795000e+001 4.000000e+000
      endloop
   endfacet
   facet normal 0.000000e+000 -0.000000e+000 1.000000e+000
      outer loop
         vertex 6.435000e+001 2.750000e+000 4.000000e+000
         vertex 7.075000e+001 -2.250000e+000 4.000000e+000
         vertex 7.275000e+001 -2.500000e-001 4.000000e+000
      endloop
   endfacet
   facet normal 0.000000e+000 0.000000e+000 1.000000e+000
      outer loop
         vertex 5.235000e+001 1.475000e+001 4.000000e+000
         vertex 5.235000e+001 1.795000e+001 4.000000e+000
         vertex 4.915000e+001 1.795000e+001 4.000000e+000
      endloop
   endfacet
   facet normal 0.000000e+000 -0.000000e+000 1.000000e+000
      outer loop
         vertex 3.395000e+001 1.475000e+001 4.000000e+000
         vertex 3.715000e+001 1.475000e+001 4.000000e+000
         vertex 3.715000e+001 1.795000e+001 4.000000e+000
      endloop
   endfacet
   facet normal 0.000000e+000 0.000000e+000 1.000000e+000
      outer loop
         vertex 1.875000e+001 1.475000e+001 4.000000e+000
         vertex 2.195000e+001 1.475000e+001 4.000000e+000
         vertex 1.875000e+001 1.795000e+001 4.000000e+000
      endloop
   endfacet
   facet normal 0.000000e+000 -0.000000e+000 1.000000e+000
      outer loop
         vertex -2.250000e+000 -2.500000e-001 4.000000e+000
         vertex 6.750000e+000 1.475000e+001 4.000000e+000
         vertex 6.750000e+000 1.795000e+001 4.000000e+000
      endloop
   endfacet
   facet normal -0.000000e+000 0.000000e+000 1.000000e+000
      outer loop
         vertex -2.500000e-001 5.275000e+001 4.000000e+000
         vertex -1.664214e+000 5.216422e+001 4.000000e+000
         vertex -2.211571e+000 5.114018e+001 4.000000e+000
      endloop
   endfacet
   facet normal 0.000000e+000 0.000000e+000 1.000000e+000
      outer loop
         vertex 7.241294e+001 -1.361140e+000 4.000000e+000
         vertex 7.151537e+001 -2.097759e+000 4.000000e+000
         vertex 7.216422e+001 -1.664214e+000 4.000000e+000
      endloop
   endfacet
   facet normal -0.000000e+000 0.000000e+000 1.000000e+000
      outer loop
         vertex 5.235000e+001 1.475000e+001 4.000000e+000
         vertex 4.915000e+001 1.475000e+001 4.000000e+000
         vertex 4.915000e+001 2.750000e+000 4.000000e+000
      endloop
   endfacet
   facet normal 0.000000e+000 0.000000e+000 1.000000e+000
      outer loop
         vertex 7.275000e+001 -2.500000e-001 4.000000e+000
         vertex 7.075000e+001 -2.250000e+000 4.000000e+000
         vertex 7.271157e+001 -6.401806e-001 4.000000e+000
      endloop
   endfacet
   facet normal 0.000000e+000 0.000000e+000 1.000000e+000
      outer loop
         vertex 3.715000e+001 1.795000e+001 4.000000e+000
         vertex 3.715000e+001 1.475000e+001 4.000000e+000
         vertex 4.915000e+001 1.475000e+001 4.000000e+000
      endloop
   endfacet
   facet normal 0.000000e+000 0.000000e+000 1.000000e+000
      outer loop
         vertex 6.750000e+000 1.795000e+001 4.000000e+000
         vertex 6.750000e+000 1.475000e+001 4.000000e+000
         vertex 1.875000e+001 1.475000e+001 4.000000e+000
      endloop
   endfacet
   facet normal 0.000000e+000 0.000000e+000 1.000000e+000
      outer loop
         vertex 7.271157e+001 -6.401806e-001 4.000000e+000
         vertex 7.075000e+001 -2.250000e+000 4.000000e+000
         vertex 7.241294e+001 -1.361140e+000 4.000000e+000
      endloop
   endfacet
   facet normal -0.000000e+000 0.000000e+000 1.000000e+000
      outer loop
         vertex -1.664214e+000 5.216422e+001 4.000000e+000
         vertex -1.912939e+000 5.186114e+001 4.000000e+000
         vertex -2.097759e+000 5.151537e+001 4.000000e+000
      endloop
   endfacet
   facet normal -0.000000e+000 -0.000000e+000 1.000000e+000
      outer loop
         vertex -2.097759e+000 -1.015367e+000 4.000000e+000
         vertex -1.912939e+000 -1.361140e+000 4.000000e+000
         vertex -1.361140e+000 -1.912939e+000 4.000000e+000
      endloop
   endfacet
   facet normal 0.000000e+000 0.000000e+000 1.000000e+000
      outer loop
         vertex -2.500000e-001 -2.250000e+000 4.000000e+000
         vertex 7.075000e+001 -2.250000e+000 4.000000e+000
         vertex 3.395000e+001 2.750000e+000 4.000000e+000
      endloop
   endfacet
   facet normal 0.000000e+000 0.000000e+000 1.000000e+000
      outer loop
         vertex 7.241294e+001 5.186114e+001 4.000000e+000
         vertex 7.216422e+001 5.216422e+001 4.000000e+000
         vertex 7.259776e+001 5.151537e+001 4.000000e+000
      endloop
   endfacet
   facet normal -0.000000e+000 0.000000e+000 1.000000e+000
      outer loop
         vertex 3.395000e+001 1.795000e+001 4.000000e+000
         vertex 2.195000e+001 1.795000e+001 4.000000e+000
         vertex 3.395000e+001 1.475000e+001 4.000000e+000
      endloop
   endfacet
   facet normal -0.000000e+000 0.000000e+000 1.000000e+000
      outer loop
         vertex 1.875000e+001 1.795000e+001 4.000000e+000
         vertex 6.750000e+000 1.795000e+001 4.000000e+000
         vertex 1.875000e+001 1.475000e+001 4.000000e+000
      endloop
   endfacet
   facet normal -0.000000e+000 0.000000e+000 1.000000e+000
      outer loop
         vertex 6.435000e+001 1.475000e+001 4.000000e+000
         vertex 6.435000e+001 2.750000e+000 4.000000e+000
         vertex 7.275000e+001 -2.500000e-001 4.000000e+000
      endloop
   endfacet
   facet normal 0.000000e+000 0.000000e+000 1.000000e+000
      outer loop
         vertex 2.195000e+001 1.475000e+001 4.000000e+000
         vertex 3.395000e+001 1.475000e+001 4.000000e+000
         vertex 2.195000e+001 1.795000e+001 4.000000e+000
      endloop
   endfacet
   facet normal 0.000000e+000 0.000000e+000 1.000000e+000
      outer loop
         vertex 3.395000e+001 2.995000e+001 4.000000e+000
         vertex -2.500000e-001 5.275000e+001 4.000000e+000
         vertex 2.195000e+001 2.995000e+001 4.000000e+000
      endloop
   endfacet
   facet normal 0.000000e+000 0.000000e+000 1.000000e+000
      outer loop
         vertex 6.435000e+001 2.995000e+001 4.000000e+000
         vertex 7.275000e+001 5.075000e+001 4.000000e+000
         vertex 7.075000e+001 5.275000e+001 4.000000e+000
      endloop
   endfacet
   facet normal -0.000000e+000 0.000000e+000 1.000000e+000
      outer loop
         vertex 2.195000e+001 1.795000e+001 4.000000e+000
         vertex 1.875000e+001 1.795000e+001 4.000000e+000
         vertex 2.195000e+001 1.475000e+001 4.000000e+000
      endloop
   endfacet
   facet normal 0.000000e+000 0.000000e+000 1.000000e+000
      outer loop
         vertex 7.075000e+001 -2.250000e+000 4.000000e+000
         vertex 5.235000e+001 2.750000e+000 4.000000e+000
         vertex 4.915000e+001 2.750000e+000 4.000000e+000
      endloop
   endfacet
   facet normal -0.000000e+000 0.000000e+000 1.000000e+000
      outer loop
         vertex 6.750000e+000 2.750000e+000 4.000000e+000
         vertex -2.250000e+000 -2.500000e-001 4.000000e+000
         vertex -2.500000e-001 -2.250000e+000 4.000000e+000
      endloop
   endfacet
   facet normal 0.000000e+000 0.000000e+000 1.000000e+000
      outer loop
         vertex -1.015367e+000 -2.097759e+000 4.000000e+000
         vertex -2.097759e+000 -1.015367e+000 4.000000e+000
         vertex -1.361140e+000 -1.912939e+000 4.000000e+000
      endloop
   endfacet
   facet normal -0.000000e+000 0.000000e+000 1.000000e+000
      outer loop
         vertex 3.715000e+001 1.795000e+001 4.000000e+000
         vertex 3.395000e+001 1.795000e+001 4.000000e+000
         vertex 3.395000e+001 1.475000e+001 4.000000e+000
      endloop
   endfacet
   facet normal 0.000000e+000 -0.000000e+000 1.000000e+000
      outer loop
         vertex -2.250000e+000 -2.500000e-001 4.000000e+000
         vertex 6.750000e+000 1.795000e+001 4.000000e+000
         vertex 6.750000e+000 2.995000e+001 4.000000e+000
      endloop
   endfacet
   facet normal 0.000000e+000 0.000000e+000 1.000000e+000
      outer loop
         vertex 3.395000e+001 2.750000e+000 4.000000e+000
         vertex 7.075000e+001 -2.250000e+000 4.000000e+000
         vertex 3.715000e+001 2.750000e+000 4.000000e+000
      endloop
   endfacet
   facet normal 0.000000e+000 0.000000e+000 1.000000e+000
      outer loop
         vertex 2.195000e+001 2.995000e+001 4.000000e+000
         vertex -2.500000e-001 5.275000e+001 4.000000e+000
         vertex 1.875000e+001 2.995000e+001 4.000000e+000
      endloop
   endfacet
   facet normal 0.000000e+000 0.000000e+000 1.000000e+000
      outer loop
         vertex 3.715000e+001 2.750000e+000 4.000000e+000
         vertex 7.075000e+001 -2.250000e+000 4.000000e+000
         vertex 4.915000e+001 2.750000e+000 4.000000e+000
      endloop
   endfacet
   facet normal 0.000000e+000 0.000000e+000 1.000000e+000
      outer loop
         vertex -2.211571e+000 5.114018e+001 4.000000e+000
         vertex -2.250000e+000 5.075000e+001 4.000000e+000
         vertex -2.500000e-001 5.275000e+001 4.000000e+000
      endloop
   endfacet
   facet normal 0.000000e+000 0.000000e+000 1.000000e+000
      outer loop
         vertex 4.915000e+001 2.995000e+001 4.000000e+000
         vertex 4.915000e+001 1.795000e+001 4.000000e+000
         vertex 5.235000e+001 2.995000e+001 4.000000e+000
      endloop
   endfacet
   facet normal 0.000000e+000 0.000000e+000 1.000000e+000
      outer loop
         vertex 5.235000e+001 2.750000e+000 4.000000e+000
         vertex 5.235000e+001 1.475000e+001 4.000000e+000
         vertex 4.915000e+001 2.750000e+000 4.000000e+000
      endloop
   endfacet
   facet normal -0.000000e+000 0.000000e+000 1.000000e+000
      outer loop
         vertex 1.875000e+001 2.750000e+000 4.000000e+000
         vertex 6.750000e+000 2.750000e+000 4.000000e+000
         vertex -2.500000e-001 -2.250000e+000 4.000000e+000
      endloop
   endfacet
   facet normal 0.000000e+000 0.000000e+000 1.000000e+000
      outer loop
         vertex 7.075000e+001 5.275000e+001 4.000000e+000
         vertex 3.715000e+001 2.995000e+001 4.000000e+000
         vertex 4.915000e+001 2.995000e+001 4.000000e+000
      endloop
   endfacet
   facet normal 0.000000e+000 -0.000000e+000 1.000000e+000
      outer loop
         vertex 4.915000e+001 1.795000e+001 4.000000e+000
         vertex 5.235000e+001 1.795000e+001 4.000000e+000
         vertex 5.235000e+001 2.995000e+001 4.000000e+000
      endloop
   endfacet
   facet normal 0.000000e+000 0.000000e+000 1.000000e+000
      outer loop
         vertex 1.875000e+001 2.750000e+000 4.000000e+000
         vertex -2.500000e-001 -2.250000e+000 4.000000e+000
         vertex 2.195000e+001 2.750000e+000 4.000000e+000
      endloop
   endfacet
   facet normal 0.000000e+000 0.000000e+000 1.000000e+000
      outer loop
         vertex 7.275000e+001 5.075000e+001 4.000000e+000
         vertex 7.259776e+001 5.151537e+001 4.000000e+000
         vertex 7.216422e+001 5.216422e+001 4.000000e+000
      endloop
   endfacet
   facet normal 0.000000e+000 0.000000e+000 1.000000e+000
      outer loop
         vertex 7.275000e+001 -2.500000e-001 4.000000e+000
         vertex 6.435000e+001 1.795000e+001 4.000000e+000
         vertex 6.435000e+001 1.475000e+001 4.000000e+000
      endloop
   endfacet
   facet normal 0.000000e+000 0.000000e+000 1.000000e+000
      outer loop
         vertex 7.075000e+001 5.275000e+001 4.000000e+000
         vertex 4.915000e+001 2.995000e+001 4.000000e+000
         vertex 5.235000e+001 2.995000e+001 4.000000e+000
      endloop
   endfacet
   facet normal 0.000000e+000 0.000000e+000 1.000000e+000
      outer loop
         vertex -2.500000e-001 -2.250000e+000 4.000000e+000
         vertex 3.395000e+001 2.750000e+000 4.000000e+000
         vertex 2.195000e+001 2.750000e+000 4.000000e+000
      endloop
   endfacet
   facet normal 1.000000e+000 -0.000000e+000 0.000000e+000
      outer loop
         vertex 7.275000e+001 5.075000e+001 4.000000e+000
         vertex 7.275000e+001 -2.500000e-001 4.000000e+000
         vertex 7.275000e+001 -2.500000e-001 1.000000e+000
      endloop
   endfacet
   facet normal 1.000000e+000 0.000000e+000 0.000000e+000
      outer loop
         vertex 7.275000e+001 5.075000e+001 1.000000e+000
         vertex 7.275000e+001 5.075000e+001 4.000000e+000
         vertex 7.275000e+001 -2.500000e-001 1.000000e+000
      endloop
   endfacet
   facet normal 0.000000e+000 -1.000000e+000 0.000000e+000
      outer loop
         vertex 7.075000e+001 -2.250000e+000 4.000000e+000
         vertex -2.500000e-001 -2.250000e+000 4.000000e+000
         vertex 7.075000e+001 -2.250000e+000 1.000000e+000
      endloop
   endfacet
   facet normal 0.000000e+000 -1.000000e+000 0.000000e+000
      outer loop
         vertex -2.500000e-001 -2.250000e+000 1.000000e+000
         vertex 7.075000e+001 -2.250000e+000 1.000000e+000
         vertex -2.500000e-001 -2.250000e+000 4.000000e+000
      endloop
   endfacet
   facet normal -1.000000e+000 -0.000000e+000 -0.000000e+000
      outer loop
         vertex -2.250000e+000 -2.500000e-001 4.000000e+000
         vertex -2.250000e+000 5.075000e+001 4.000000e+000
         vertex -2.250000e+000 5.075000e+001 1.000000e+000
      endloop
   endfacet
   facet normal -1.000000e+000 0.000000e+000 0.000000e+000
      outer loop
         vertex -2.250000e+000 -2.500000e-001 1.000000e+000
         vertex -2.250000e+000 -2.500000e-001 4.000000e+000
         vertex -2.250000e+000 5.075000e+001 1.000000e+000
      endloop
   endfacet
   facet normal 0.000000e+000 1.000000e+000 0.000000e+000
      outer loop
         vertex 7.075000e+001 5.275000e+001 1.000000e+000
         vertex -2.500000e-001 5.275000e+001 1.000000e+000
         vertex -2.500000e-001 5.275000e+001 4.000000e+000
      endloop
   endfacet
   facet normal 0.000000e+000 1.000000e+000 -0.000000e+000
      outer loop
         vertex 7.075000e+001 5.275000e+001 4.000000e+000
         vertex 7.075000e+001 5.275000e+001 1.000000e+000
         vertex -2.500000e-001 5.275000e+001 4.000000e+000
      endloop
   endfacet
   facet normal -1.000000e+000 0.000000e+000 0.000000e+000
      outer loop
         vertex 0.000000e+000 0.000000e+000 0.000000e+000
         vertex 0.000000e+000 0.000000e+000 1.000000e+000
         vertex 0.000000e+000 5.050000e+001 1.000000e+000
      endloop
   endfacet
   facet normal -1.000000e+000 0.000000e+000 0.000000e+000
      outer loop
         vertex 0.000000e+000 5.050000e+001 0.000000e+000
         vertex 0.000000e+000 0.000000e+000 0.000000e+000
         vertex 0.000000e+000 5.050000e+001 1.000000e+000
      endloop
   endfacet
   facet normal 1.000000e+000 0.000000e+000 0.000000e+000
      outer loop
         vertex 7.050000e+001 5.050000e+001 0.000000e+000
         vertex 7.050000e+001 5.050000e+001 1.000000e+000
         vertex 7.050000e+001 0.000000e+000 1.000000e+000
      endloop
   endfacet
   facet normal 1.000000e+000 0.000000e+000 0.000000e+000
      outer loop
         vertex 7.050000e+001 0.000000e+000 0.000000e+000
         vertex 7.050000e+001 5.050000e+001 0.000000e+000
         vertex 7.050000e+001 0.000000e+000 1.000000e+000
      endloop
   endfacet
   facet normal 9.951848e-001 9.801623e-002 0.000000e+000
      outer loop
         vertex 7.271157e+001 5.114018e+001 1.000000e+000
         vertex 7.271157e+001 5.114018e+001 4.000000e+000
         vertex 7.275000e+001 5.075000e+001 4.000000e+000
      endloop
   endfacet
   facet normal 8.819281e-001 4.713839e-001 0.000000e+000
      outer loop
         vertex 7.241294e+001 5.186114e+001 1.000000e+000
         vertex 7.241294e+001 5.186114e+001 4.000000e+000
         vertex 7.259776e+001 5.151537e+001 4.000000e+000
      endloop
   endfacet
   facet normal 6.343879e-001 7.730149e-001 0.000000e+000
      outer loop
         vertex 7.186114e+001 5.241294e+001 1.000000e+000
         vertex 7.186114e+001 5.241294e+001 4.000000e+000
         vertex 7.216422e+001 5.216422e+001 4.000000e+000
      endloop
   endfacet
   facet normal 2.902869e-001 9.569397e-001 0.000000e+000
      outer loop
         vertex 7.114018e+001 5.271157e+001 1.000000e+000
         vertex 7.114018e+001 5.271157e+001 4.000000e+000
         vertex 7.151537e+001 5.259776e+001 4.000000e+000
      endloop
   endfacet
   facet normal 9.801623e-002 9.951848e-001 -0.000000e+000
      outer loop
         vertex 7.114018e+001 5.271157e+001 4.000000e+000
         vertex 7.075000e+001 5.275000e+001 1.000000e+000
         vertex 7.075000e+001 5.275000e+001 4.000000e+000
      endloop
   endfacet
   facet normal 4.713955e-001 8.819219e-001 -0.000000e+000
      outer loop
         vertex 7.186114e+001 5.241294e+001 4.000000e+000
         vertex 7.186114e+001 5.241294e+001 1.000000e+000
         vertex 7.151537e+001 5.259776e+001 1.000000e+000
      endloop
   endfacet
   facet normal 7.730110e-001 6.343926e-001 -0.000000e+000
      outer loop
         vertex 7.241294e+001 5.186114e+001 4.000000e+000
         vertex 7.241294e+001 5.186114e+001 1.000000e+000
         vertex 7.216422e+001 5.216422e+001 1.000000e+000
      endloop
   endfacet
   facet normal 9.569370e-001 2.902958e-001 -0.000000e+000
      outer loop
         vertex 7.271157e+001 5.114018e+001 4.000000e+000
         vertex 7.271157e+001 5.114018e+001 1.000000e+000
         vertex 7.259776e+001 5.151537e+001 1.000000e+000
      endloop
   endfacet
   facet normal 9.951848e-001 9.801623e-002 0.000000e+000
      outer loop
         vertex 7.271157e+001 5.114018e+001 1.000000e+000
         vertex 7.275000e+001 5.075000e+001 4.000000e+000
         vertex 7.275000e+001 5.075000e+001 1.000000e+000
      endloop
   endfacet
   facet normal 2.902869e-001 9.569397e-001 0.000000e+000
      outer loop
         vertex 7.151537e+001 5.259776e+001 1.000000e+000
         vertex 7.114018e+001 5.271157e+001 1.000000e+000
         vertex 7.151537e+001 5.259776e+001 4.000000e+000
      endloop
   endfacet
   facet normal 4.713955e-001 8.819219e-001 0.000000e+000
      outer loop
         vertex 7.151537e+001 5.259776e+001 4.000000e+000
         vertex 7.186114e+001 5.241294e+001 4.000000e+000
         vertex 7.151537e+001 5.259776e+001 1.000000e+000
      endloop
   endfacet
   facet normal 9.569370e-001 2.902958e-001 0.000000e+000
      outer loop
         vertex 7.259776e+001 5.151537e+001 1.000000e+000
         vertex 7.259776e+001 5.151537e+001 4.000000e+000
         vertex 7.271157e+001 5.114018e+001 4.000000e+000
      endloop
   endfacet
   facet normal 9.801623e-002 9.951848e-001 -0.000000e+000
      outer loop
         vertex 7.114018e+001 5.271157e+001 4.000000e+000
         vertex 7.114018e+001 5.271157e+001 1.000000e+000
         vertex 7.075000e+001 5.275000e+001 1.000000e+000
      endloop
   endfacet
   facet normal 8.819281e-001 4.713839e-001 -0.000000e+000
      outer loop
         vertex 7.259776e+001 5.151537e+001 4.000000e+000
         vertex 7.259776e+001 5.151537e+001 1.000000e+000
         vertex 7.241294e+001 5.186114e+001 1.000000e+000
      endloop
   endfacet
   facet normal 7.730110e-001 6.343926e-001 0.000000e+000
      outer loop
         vertex 7.216422e+001 5.216422e+001 4.000000e+000
         vertex 7.241294e+001 5.186114e+001 4.000000e+000
         vertex 7.216422e+001 5.216422e+001 1.000000e+000
      endloop
   endfacet
   facet normal 6.343879e-001 7.730149e-001 -0.000000e+000
      outer loop
         vertex 7.216422e+001 5.216422e+001 4.000000e+000
         vertex 7.216422e+001 5.216422e+001 1.000000e+000
         vertex 7.186114e+001 5.241294e+001 1.000000e+000
      endloop
   endfacet
   facet normal 9.801683e-002 -9.951848e-001 0.000000e+000
      outer loop
         vertex 7.114018e+001 -2.211571e+000 1.000000e+000
         vertex 7.114018e+001 -2.211571e+000 4.000000e+000
         vertex 7.075000e+001 -2.250000e+000 4.000000e+000
      endloop
   endfacet
   facet normal 4.713986e-001 -8.819203e-001 0.000000e+000
      outer loop
         vertex 7.186114e+001 -1.912939e+000 1.000000e+000
         vertex 7.186114e+001 -1.912939e+000 4.000000e+000
         vertex 7.151537e+001 -2.097759e+000 4.000000e+000
      endloop
   endfacet
   facet normal 7.730101e-001 -6.343937e-001 0.000000e+000
      outer loop
         vertex 7.241294e+001 -1.361140e+000 1.000000e+000
         vertex 7.241294e+001 -1.361140e+000 4.000000e+000
         vertex 7.216422e+001 -1.664214e+000 4.000000e+000
      endloop
   endfacet
   facet normal 9.569376e-001 -2.902935e-001 0.000000e+000
      outer loop
         vertex 7.271157e+001 -6.401806e-001 1.000000e+000
         vertex 7.271157e+001 -6.401806e-001 4.000000e+000
         vertex 7.259776e+001 -1.015367e+000 4.000000e+000
      endloop
   endfacet
   facet normal 9.951848e-001 -9.801669e-002 0.000000e+000
      outer loop
         vertex 7.271157e+001 -6.401806e-001 4.000000e+000
         vertex 7.275000e+001 -2.500000e-001 1.000000e+000
         vertex 7.275000e+001 -2.500000e-001 4.000000e+000
      endloop
   endfacet
   facet normal 8.819270e-001 -4.713861e-001 0.000000e+000
      outer loop
         vertex 7.241294e+001 -1.361140e+000 4.000000e+000
         vertex 7.241294e+001 -1.361140e+000 1.000000e+000
         vertex 7.259776e+001 -1.015367e+000 1.000000e+000
      endloop
   endfacet
   facet normal 6.343875e-001 -7.730152e-001 0.000000e+000
      outer loop
         vertex 7.186114e+001 -1.912939e+000 4.000000e+000
         vertex 7.186114e+001 -1.912939e+000 1.000000e+000
         vertex 7.216422e+001 -1.664214e+000 1.000000e+000
      endloop
   endfacet
   facet normal 2.902869e-001 -9.569397e-001 0.000000e+000
      outer loop
         vertex 7.114018e+001 -2.211571e+000 4.000000e+000
         vertex 7.114018e+001 -2.211571e+000 1.000000e+000
         vertex 7.151537e+001 -2.097759e+000 1.000000e+000
      endloop
   endfacet
   facet normal 9.801683e-002 -9.951848e-001 0.000000e+000
      outer loop
         vertex 7.114018e+001 -2.211571e+000 1.000000e+000
         vertex 7.075000e+001 -2.250000e+000 4.000000e+000
         vertex 7.075000e+001 -2.250000e+000 1.000000e+000
      endloop
   endfacet
   facet normal 9.569376e-001 -2.902935e-001 0.000000e+000
      outer loop
         vertex 7.259776e+001 -1.015367e+000 1.000000e+000
         vertex 7.271157e+001 -6.401806e-001 1.000000e+000
         vertex 7.259776e+001 -1.015367e+000 4.000000e+000
      endloop
   endfacet
   facet normal 8.819270e-001 -4.713861e-001 0.000000e+000
      outer loop
         vertex 7.259776e+001 -1.015367e+000 4.000000e+000
         vertex 7.241294e+001 -1.361140e+000 4.000000e+000
         vertex 7.259776e+001 -1.015367e+000 1.000000e+000
      endloop
   endfacet
   facet normal 2.902869e-001 -9.569397e-001 0.000000e+000
      outer loop
         vertex 7.151537e+001 -2.097759e+000 1.000000e+000
         vertex 7.151537e+001 -2.097759e+000 4.000000e+000
         vertex 7.114018e+001 -2.211571e+000 4.000000e+000
      endloop
   endfacet
   facet normal 9.951848e-001 -9.801669e-002 0.000000e+000
      outer loop
         vertex 7.271157e+001 -6.401806e-001 4.000000e+000
         vertex 7.271157e+001 -6.401806e-001 1.000000e+000
         vertex 7.275000e+001 -2.500000e-001 1.000000e+000
      endloop
   endfacet
   facet normal 4.713986e-001 -8.819203e-001 0.000000e+000
      outer loop
         vertex 7.151537e+001 -2.097759e+000 4.000000e+000
         vertex 7.151537e+001 -2.097759e+000 1.000000e+000
         vertex 7.186114e+001 -1.912939e+000 1.000000e+000
      endloop
   endfacet
   facet normal 6.343875e-001 -7.730152e-001 0.000000e+000
      outer loop
         vertex 7.216422e+001 -1.664214e+000 4.000000e+000
         vertex 7.186114e+001 -1.912939e+000 4.000000e+000
         vertex 7.216422e+001 -1.664214e+000 1.000000e+000
      endloop
   endfacet
   facet normal 7.730101e-001 -6.343937e-001 0.000000e+000
      outer loop
         vertex 7.216422e+001 -1.664214e+000 4.000000e+000
         vertex 7.216422e+001 -1.664214e+000 1.000000e+000
         vertex 7.241294e+001 -1.361140e+000 1.000000e+000
      endloop
   endfacet
   facet normal -9.951847e-001 -9.801729e-002 0.000000e+000
      outer loop
         vertex -2.250000e+000 -2.500000e-001 1.000000e+000
         vertex -2.211571e+000 -6.401806e-001 4.000000e+000
         vertex -2.250000e+000 -2.500000e-001 4.000000e+000
      endloop
   endfacet
   facet normal -8.819213e-001 -4.713967e-001 0.000000e+000
      outer loop
         vertex -2.097759e+000 -1.015367e+000 1.000000e+000
         vertex -1.912939e+000 -1.361140e+000 4.000000e+000
         vertex -2.097759e+000 -1.015367e+000 4.000000e+000
      endloop
   endfacet
   facet normal -6.343933e-001 -7.730104e-001 0.000000e+000
      outer loop
         vertex -1.664214e+000 -1.664214e+000 1.000000e+000
         vertex -1.361140e+000 -1.912939e+000 4.000000e+000
         vertex -1.664214e+000 -1.664214e+000 4.000000e+000
      endloop
   endfacet
   facet normal -2.902846e-001 -9.569403e-001 0.000000e+000
      outer loop
         vertex -1.015367e+000 -2.097759e+000 1.000000e+000
         vertex -6.401806e-001 -2.211571e+000 4.000000e+000
         vertex -1.015367e+000 -2.097759e+000 4.000000e+000
      endloop
   endfacet
   facet normal -9.801729e-002 -9.951847e-001 0.000000e+000
      outer loop
         vertex -6.401806e-001 -2.211571e+000 1.000000e+000
         vertex -2.500000e-001 -2.250000e+000 1.000000e+000
         vertex -2.500000e-001 -2.250000e+000 4.000000e+000
      endloop
   endfacet
   facet normal -4.713967e-001 -8.819213e-001 0.000000e+000
      outer loop
         vertex -1.015367e+000 -2.097759e+000 4.000000e+000
         vertex -1.361140e+000 -1.912939e+000 1.000000e+000
         vertex -1.015367e+000 -2.097759e+000 1.000000e+000
      endloop
   endfacet
   facet normal -7.730104e-001 -6.343933e-001 0.000000e+000
      outer loop
         vertex -1.664214e+000 -1.664214e+000 4.000000e+000
         vertex -1.912939e+000 -1.361140e+000 1.000000e+000
         vertex -1.664214e+000 -1.664214e+000 1.000000e+000
      endloop
   endfacet
   facet normal -9.569403e-001 -2.902846e-001 0.000000e+000
      outer loop
         vertex -2.097759e+000 -1.015367e+000 4.000000e+000
         vertex -2.211571e+000 -6.401806e-001 1.000000e+000
         vertex -2.097759e+000 -1.015367e+000 1.000000e+000
      endloop
   endfacet
   facet normal -9.951847e-001 -9.801729e-002 -0.000000e+000
      outer loop
         vertex -2.211571e+000 -6.401806e-001 1.000000e+000
         vertex -2.211571e+000 -6.401806e-001 4.000000e+000
         vertex -2.250000e+000 -2.500000e-001 1.000000e+000
      endloop
   endfacet
   facet normal -2.902846e-001 -9.569403e-001 -0.000000e+000
      outer loop
         vertex -6.401806e-001 -2.211571e+000 1.000000e+000
         vertex -6.401806e-001 -2.211571e+000 4.000000e+000
         vertex -1.015367e+000 -2.097759e+000 1.000000e+000
      endloop
   endfacet
   facet normal -7.730104e-001 -6.343933e-001 0.000000e+000
      outer loop
         vertex -1.912939e+000 -1.361140e+000 4.000000e+000
         vertex -1.912939e+000 -1.361140e+000 1.000000e+000
         vertex -1.664214e+000 -1.664214e+000 4.000000e+000
      endloop
   endfacet
   facet normal -9.801729e-002 -9.951847e-001 -0.000000e+000
      outer loop
         vertex -2.500000e-001 -2.250000e+000 4.000000e+000
         vertex -6.401806e-001 -2.211571e+000 4.000000e+000
         vertex -6.401806e-001 -2.211571e+000 1.000000e+000
      endloop
   endfacet
   facet normal -9.569403e-001 -2.902846e-001 0.000000e+000
      outer loop
         vertex -2.211571e+000 -6.401806e-001 1.000000e+000
         vertex -2.097759e+000 -1.015367e+000 4.000000e+000
         vertex -2.211571e+000 -6.401806e-001 4.000000e+000
      endloop
   endfacet
   facet normal -6.343933e-001 -7.730104e-001 0.000000e+000
      outer loop
         vertex -1.361140e+000 -1.912939e+000 4.000000e+000
         vertex -1.664214e+000 -1.664214e+000 1.000000e+000
         vertex -1.361140e+000 -1.912939e+000 1.000000e+000
      endloop
   endfacet
   facet normal -8.819213e-001 -4.713967e-001 -0.000000e+000
      outer loop
         vertex -1.912939e+000 -1.361140e+000 1.000000e+000
         vertex -1.912939e+000 -1.361140e+000 4.000000e+000
         vertex -2.097759e+000 -1.015367e+000 1.000000e+000
      endloop
   endfacet
   facet normal -4.713967e-001 -8.819213e-001 0.000000e+000
      outer loop
         vertex -1.361140e+000 -1.912939e+000 1.000000e+000
         vertex -1.015367e+000 -2.097759e+000 4.000000e+000
         vertex -1.361140e+000 -1.912939e+000 4.000000e+000
      endloop
   endfacet
   facet normal -9.801669e-002 9.951848e-001 0.000000e+000
      outer loop
         vertex -6.401806e-001 5.271157e+001 1.000000e+000
         vertex -6.401806e-001 5.271157e+001 4.000000e+000
         vertex -2.500000e-001 5.275000e+001 4.000000e+000
      endloop
   endfacet
   facet normal -4.713936e-001 8.819229e-001 0.000000e+000
      outer loop
         vertex -1.361140e+000 5.241294e+001 1.000000e+000
         vertex -1.361140e+000 5.241294e+001 4.000000e+000
         vertex -1.015367e+000 5.259776e+001 4.000000e+000
      endloop
   endfacet
   facet normal -7.730113e-001 6.343923e-001 0.000000e+000
      outer loop
         vertex -1.912939e+000 5.186114e+001 1.000000e+000
         vertex -1.912939e+000 5.186114e+001 4.000000e+000
         vertex -1.664214e+000 5.216422e+001 4.000000e+000
      endloop
   endfacet
   facet normal -9.569397e-001 2.902869e-001 0.000000e+000
      outer loop
         vertex -2.211571e+000 5.114018e+001 1.000000e+000
         vertex -2.211571e+000 5.114018e+001 4.000000e+000
         vertex -2.097759e+000 5.151537e+001 4.000000e+000
      endloop
   endfacet
   facet normal -9.951848e-001 9.801683e-002 0.000000e+000
      outer loop
         vertex -2.211571e+000 5.114018e+001 4.000000e+000
         vertex -2.250000e+000 5.075000e+001 1.000000e+000
         vertex -2.250000e+000 5.075000e+001 4.000000e+000
      endloop
   endfacet
   facet normal -8.819224e-001 4.713946e-001 0.000000e+000
      outer loop
         vertex -1.912939e+000 5.186114e+001 4.000000e+000
         vertex -1.912939e+000 5.186114e+001 1.000000e+000
         vertex -2.097759e+000 5.151537e+001 1.000000e+000
      endloop
   endfacet
   facet normal -6.343937e-001 7.730101e-001 0.000000e+000
      outer loop
         vertex -1.361140e+000 5.241294e+001 4.000000e+000
         vertex -1.361140e+000 5.241294e+001 1.000000e+000
         vertex -1.664214e+000 5.216422e+001 1.000000e+000
      endloop
   endfacet
   facet normal -2.902846e-001 9.569403e-001 0.000000e+000
      outer loop
         vertex -6.401806e-001 5.271157e+001 4.000000e+000
         vertex -6.401806e-001 5.271157e+001 1.000000e+000
         vertex -1.015367e+000 5.259776e+001 1.000000e+000
      endloop
   endfacet
   facet normal -9.801669e-002 9.951848e-001 0.000000e+000
      outer loop
         vertex -6.401806e-001 5.271157e+001 1.000000e+000
         vertex -2.500000e-001 5.275000e+001 4.000000e+000
         vertex -2.500000e-001 5.275000e+001 1.000000e+000
      endloop
   endfacet
   facet normal -9.569397e-001 2.902869e-001 0.000000e+000
      outer loop
         vertex -2.097759e+000 5.151537e+001 1.000000e+000
         vertex -2.211571e+000 5.114018e+001 1.000000e+000
         vertex -2.097759e+000 5.151537e+001 4.000000e+000
      endloop
   endfacet
   facet normal -8.819224e-001 4.713946e-001 0.000000e+000
      outer loop
         vertex -2.097759e+000 5.151537e+001 4.000000e+000
         vertex -1.912939e+000 5.186114e+001 4.000000e+000
         vertex -2.097759e+000 5.151537e+001 1.000000e+000
      endloop
   endfacet
   facet normal -2.902846e-001 9.569403e-001 0.000000e+000
      outer loop
         vertex -1.015367e+000 5.259776e+001 1.000000e+000
         vertex -1.015367e+000 5.259776e+001 4.000000e+000
         vertex -6.401806e-001 5.271157e+001 4.000000e+000
      endloop
   endfacet
   facet normal -9.951848e-001 9.801683e-002 0.000000e+000
      outer loop
         vertex -2.211571e+000 5.114018e+001 4.000000e+000
         vertex -2.211571e+000 5.114018e+001 1.000000e+000
         vertex -2.250000e+000 5.075000e+001 1.000000e+000
      endloop
   endfacet
   facet normal -4.713936e-001 8.819229e-001 0.000000e+000
      outer loop
         vertex -1.015367e+000 5.259776e+001 4.000000e+000
         vertex -1.015367e+000 5.259776e+001 1.000000e+000
         vertex -1.361140e+000 5.241294e+001 1.000000e+000
      endloop
   endfacet
   facet normal -6.343937e-001 7.730101e-001 0.000000e+000
      outer loop
         vertex -1.664214e+000 5.216422e+001 4.000000e+000
         vertex -1.361140e+000 5.241294e+001 4.000000e+000
         vertex -1.664214e+000 5.216422e+001 1.000000e+000
      endloop
   endfacet
   facet normal -7.730113e-001 6.343923e-001 0.000000e+000
      outer loop
         vertex -1.664214e+000 5.216422e+001 4.000000e+000
         vertex -1.664214e+000 5.216422e+001 1.000000e+000
         vertex -1.912939e+000 5.186114e+001 1.000000e+000
      endloop
   endfacet
endsolid
